<svg width="40" height="40" viewBox="0 0 40 40" fill="none" xmlns="http://www.w3.org/2000/svg">
<g clip-path="url(#clip0_7_203)">
<mask id="mask0_7_203" style="mask-type:luminance" maskUnits="userSpaceOnUse" x="0" y="0" width="40" height="40">
<path d="M40 0H0V40H40V0Z" fill="white"/>
</mask>
<g mask="url(#mask0_7_203)">
<path d="M20.788 8.65355C22.7733 8.91077 24.6835 9.68452 26.2893 10.8787C26.6121 11.1328 26.9444 11.3685 27.2352 11.6619C28.483 12.8158 29.4783 14.2352 30.1292 15.8063C30.62 16.9774 30.9019 18.2231 31.0027 19.4882C31.3502 19.5307 31.6877 19.6005 32.0063 19.7507C32.8221 20.1144 33.4279 20.8499 33.6746 21.7039C33.8126 22.2058 33.8615 22.7407 33.7649 23.2551C33.6095 24.2399 33.0447 25.1517 32.2231 25.7181C31.6489 26.1197 30.9376 26.3496 30.2357 26.3312C29.9665 26.3286 29.7087 26.2472 29.4415 26.2373C29.3444 26.3512 29.272 26.4913 29.1917 26.6179C28.2121 28.1727 26.852 29.4793 25.2735 30.4184C23.7985 31.2966 22.1292 31.8441 20.42 32.01C19.8384 32.0467 19.272 32.1176 18.6888 32.0488C15.9754 31.9281 13.3308 30.8184 11.3318 28.9816C9.80793 27.5879 8.66304 25.7885 8.04887 23.8168C7.67669 22.6173 7.49139 21.3612 7.52026 20.105C7.54756 17.9874 8.178 15.8751 9.30189 14.0808C10.3045 12.4635 11.7119 11.1108 13.3544 10.1528C14.9098 9.24567 16.6798 8.69974 18.4772 8.58478C19.2468 8.50762 20.0226 8.56536 20.788 8.65355V8.65355Z" fill="black"/>
<path d="M19.0552 8.87454C21.5996 8.80158 24.1639 9.6462 26.1843 11.1906C26.5282 11.4037 26.7996 11.6887 27.0956 11.9591C28.3728 13.147 29.3633 14.6336 29.9791 16.2646C30.3691 17.294 30.6017 18.3748 30.6909 19.4714C30.2242 19.5102 29.7807 19.5942 29.3586 19.8063C29.2437 19.8604 29.2594 20.0661 29.3943 20.0808C29.5177 20.0929 29.6557 20.0016 29.7744 19.9654C30.5418 19.6835 31.4185 19.737 32.125 20.1585C32.7387 20.5144 33.1796 21.1118 33.3791 21.789C33.5156 22.222 33.5198 22.7029 33.4715 23.1512C33.3402 24.0619 32.8232 24.9218 32.0683 25.4509C31.2437 26.0457 30.1171 26.2194 29.1849 25.7764C29.0185 25.7013 28.873 25.5885 28.7082 25.5113C28.5534 25.4541 28.452 25.6577 28.5665 25.7606C28.7329 25.9055 28.9518 25.9979 29.1439 26.105C28.0867 27.8976 26.5481 29.3963 24.7129 30.3816C23.1276 31.2378 21.3303 31.7218 19.5276 31.7543C18.0772 31.7921 16.6232 31.5423 15.2646 31.0341C13.673 30.4441 12.2284 29.4892 11.0457 28.273C9.85572 27.0462 8.95021 25.5496 8.41058 23.9281C7.62528 21.5848 7.6279 18.9932 8.42475 16.653C9.0048 14.9176 10.0143 13.3349 11.3313 12.0656C12.8888 10.5575 14.8825 9.51759 17.0074 9.09082C17.6793 8.95853 18.3691 8.86824 19.0552 8.87454V8.87454Z" fill="#ECAD80"/>
<path d="M31.7602 21.2284C31.8982 21.2231 31.9407 21.4278 31.8315 21.4898C31.6378 21.5858 31.421 21.6352 31.2205 21.7181C30.915 21.8252 30.6284 21.968 30.3449 22.1234C30.5701 22.2462 30.81 22.3722 31.0121 22.5307C31.1476 22.6404 31.2667 22.7591 31.2919 22.9402C31.2783 23.1286 31.1486 23.284 31.0058 23.3963C30.6982 23.641 30.2751 23.7732 29.9145 23.9349C29.8226 23.9675 29.6819 24.0394 29.621 23.9213C29.5675 23.8299 29.6179 23.758 29.7035 23.7181C30.0525 23.5449 30.4835 23.4231 30.7948 23.1848C30.8667 23.1249 30.9727 23.041 30.9843 22.9423C30.7706 22.6467 30.3323 22.4913 30.0273 22.3076C29.9045 22.2173 29.9071 22.085 30.0189 21.9858C30.4006 21.6898 30.9103 21.4997 31.3612 21.336C31.4882 21.2924 31.6252 21.2336 31.7602 21.2284V21.2284Z" fill="black"/>
<path d="M20.8929 17.9055C21.7544 17.9323 22.59 18.2919 23.199 18.9018C23.5013 19.1963 23.7213 19.548 23.9129 19.9218C24.326 19.6546 24.7423 19.3927 25.1601 19.1328C25.2257 19.19 25.2872 19.2509 25.347 19.3144C25.1806 19.4992 24.9759 19.5974 24.7717 19.7307C24.5213 19.8898 24.2704 20.0472 24.021 20.2074C24.1874 20.7323 24.2588 21.2777 24.168 21.8247C24.0604 22.6079 23.6646 23.3396 23.0788 23.8682C22.4709 24.4226 21.6635 24.7459 20.8399 24.7522C20.1586 24.7701 19.4714 24.5696 18.9029 24.1942C18.2499 23.7711 17.758 23.1176 17.5171 22.379C17.2772 21.6179 17.304 20.7654 17.611 20.0268C17.895 19.3244 18.4278 18.7239 19.0872 18.3517C19.6284 18.0347 20.2688 17.8871 20.8929 17.9055V17.9055Z" fill="black"/>
<path d="M20.3816 18.2289C21.1506 18.136 21.9181 18.3139 22.5548 18.7559C23.2089 19.2011 23.6766 19.9039 23.8388 20.6782C23.9764 21.327 23.9039 22.0179 23.6252 22.6215C23.3039 23.3375 22.6976 23.9286 21.9674 24.2189C21.431 24.441 20.8352 24.5155 20.2625 24.4116C19.401 24.2724 18.61 23.7491 18.1443 23.011C17.8504 22.5507 17.6855 22.0168 17.6525 21.4724C17.6205 20.7134 17.8745 19.9423 18.3564 19.3538C18.8535 18.736 19.5963 18.327 20.3816 18.2289V18.2289Z" fill="white"/>
<path d="M13.2835 19.4724C13.8478 19.789 14.2935 20.3008 14.5365 20.9003C14.7197 21.347 14.7749 21.8336 14.726 22.3123C14.6321 23.2115 14.0877 24.0373 13.3035 24.4845C12.4379 24.9906 11.3266 24.9974 10.4531 24.506C9.69613 24.0866 9.15387 23.3223 9.01476 22.4672C8.91975 22 8.98116 21.5396 9.11397 21.0871C8.80846 20.8966 8.47723 20.7396 8.18274 20.5333C8.08038 20.4756 8.10715 20.3171 8.21844 20.2898C8.30505 20.2646 8.38536 20.3207 8.45991 20.357C8.71345 20.5055 8.96594 20.6541 9.22001 20.8016C9.56542 20.0598 10.199 19.4787 10.9833 19.2336C11.7402 18.989 12.5927 19.0787 13.2835 19.4724V19.4724Z" fill="black"/>
<path d="M11.4052 19.4378C12.1942 19.2919 13.0294 19.5402 13.6157 20.0861C14.1438 20.5711 14.4504 21.2787 14.4519 21.9953C14.443 22.4179 14.3354 22.8441 14.1333 23.2163C13.769 23.8892 13.1023 24.3822 12.3496 24.5234C11.926 24.6137 11.4976 24.5806 11.0855 24.452C10.0829 24.1433 9.33698 23.2037 9.28081 22.1533C9.22937 21.4819 9.46349 20.8032 9.90286 20.2945C10.2866 19.8467 10.8252 19.5428 11.4052 19.4378V19.4378Z" fill="white"/>
<path d="M19.2267 20.115C19.6136 20.0677 20.0252 20.2084 20.2897 20.4976C20.4903 20.7165 20.6194 21.0115 20.6262 21.3097C20.6409 21.6908 20.4672 22.0814 20.168 22.3197C19.8026 22.6257 19.263 22.6829 18.8367 22.4751C18.3832 22.2598 18.0897 21.7606 18.1344 21.2583C18.1711 20.6735 18.6456 20.1816 19.2267 20.115V20.115ZM10.3695 20.884C10.9685 20.6808 11.6472 21.0415 11.8152 21.6499C12.0131 22.2635 11.6042 22.9549 10.9737 23.084C10.4157 23.2231 9.8089 22.8982 9.62675 22.3522C9.42098 21.768 9.77111 21.0614 10.3695 20.884V20.884Z" fill="black"/>
<path d="M19.0152 15.8194C19.3391 15.7974 19.7024 15.7874 19.9837 15.9743C20.1769 16.1024 20.2672 16.3076 20.2189 16.5381C20.1375 16.8614 19.8714 17.1113 19.6094 17.2992C19.1386 17.6294 18.5748 17.8368 18.0047 17.9045C17.7102 17.9323 17.3486 17.927 17.0877 17.7706C16.8971 17.6588 16.778 17.4494 16.8147 17.2268C16.8682 16.9249 17.1029 16.6761 17.3365 16.494C17.8189 16.1249 18.4152 15.8987 19.0152 15.8194V15.8194ZM12.1375 16.705C12.6157 16.6861 13.0987 16.7318 13.5186 16.9801C13.7207 17.0987 13.9039 17.2892 13.9328 17.5307C13.9507 17.7517 13.8299 17.9402 13.6604 18.0698C13.4231 18.2562 13.1423 18.3323 12.8504 18.3843C12.3281 18.4378 11.7717 18.4011 11.3029 18.1438C11.0997 18.0236 10.8892 17.8368 10.8583 17.589C10.8199 17.3648 10.9643 17.1444 11.1412 17.02C11.4247 16.8168 11.7937 16.7213 12.1375 16.705V16.705Z" fill="black"/>
<path d="M18.9933 25.199C19.5675 25.2704 20.1403 25.5643 20.4221 26.0887C20.6001 26.4173 20.6788 26.8357 20.5948 27.2026C20.5187 27.7459 20.2001 28.2551 19.8337 28.6525C19.2148 29.3019 18.3717 29.7407 17.482 29.862C16.735 29.99 15.9534 29.9286 15.2311 29.704C14.7717 29.557 14.3597 29.3087 13.9812 29.0137C13.545 28.6588 13.1529 28.2079 12.9534 27.6761C12.8405 27.39 12.8116 27.0719 12.8605 26.769C12.9235 26.4068 13.198 26.1066 13.5329 25.968C13.8867 25.8252 14.2715 25.7969 14.6452 25.8719C15.1187 25.9354 15.5245 26.1365 15.9424 26.3533C16.7119 25.5575 17.8809 25.063 18.9933 25.199Z" fill="black"/>
<path d="M18.7403 25.4882C19.2028 25.5045 19.6553 25.6609 19.9833 25.9963C19.8253 26.1869 19.6248 26.3281 19.4054 26.4399C19.3172 26.4877 19.2148 26.5292 19.1403 26.5969C19.0127 26.7528 18.9508 27.0273 18.7912 27.1475C18.6054 27.0887 18.4353 26.9465 18.27 26.8431C17.5125 27.0226 16.7361 27.0992 15.9581 27.0835C15.3781 27.0956 14.8012 27.0483 14.229 26.9538C14.134 26.9397 14.0143 26.9019 13.9219 26.9365C13.8075 27.0121 13.7151 27.125 13.6169 27.2205C13.5209 27.0714 13.4238 26.9229 13.3303 26.7717C13.2826 26.7496 13.2348 26.7281 13.187 26.7061C13.3303 26.3916 13.6264 26.2068 13.9623 26.1617C14.5755 26.0756 15.2269 26.2998 15.7476 26.6131C15.85 26.6667 15.9371 26.7355 16.0511 26.6593C16.1996 26.546 16.3219 26.4011 16.4715 26.2877C17.0988 25.7843 17.9287 25.4499 18.7403 25.4882V25.4882Z" fill="white"/>
<path d="M20.1754 26.2635C20.3113 26.5659 20.3444 26.8635 20.2877 27.1906C20.1843 27.6903 19.9171 28.1244 19.5617 28.4851C18.9937 29.0772 18.1748 29.4352 17.3743 29.5675C16.788 29.6394 16.1654 29.6362 15.5927 29.4788C14.821 29.2756 14.1166 28.8457 13.6189 28.2168C13.3449 27.8609 13.1376 27.4746 13.1271 27.0147C13.263 27.1549 13.3302 27.3418 13.4583 27.4851C13.6793 27.6572 13.8641 27.3743 14.01 27.2404C14.9355 27.3711 15.9192 27.4693 16.8504 27.3643C17.3134 27.3428 17.7685 27.2662 18.2226 27.1774C18.4168 27.2525 18.6599 27.4882 18.8888 27.4368C19.2058 27.3187 19.2069 26.8152 19.5323 26.7223C19.7276 26.6284 19.9024 26.5092 20.0636 26.3643C20.1008 26.3313 20.1381 26.2977 20.1754 26.2635V26.2635Z" fill="#8F2E45"/>
<path d="M26.1638 -2.44514C26.2625 -2.47611 26.3522 -2.5076 26.4557 -2.47558C26.5013 -2.42729 26.5438 -2.37585 26.5837 -2.32178C26.4042 -2.05616 26.2683 -1.77165 26.1276 -1.48451C25.4861 -0.160097 25.0562 1.35959 25.1019 2.83885C25.8788 2.76064 26.6725 2.75749 27.4541 2.77639C28.5244 2.79791 29.5648 2.94646 30.6163 3.13492C30.7186 3.15696 30.799 3.19108 30.81 3.30762C30.8158 3.46877 30.6593 3.4924 30.5501 3.57009C29.9543 3.92547 29.4231 4.40316 28.9239 4.8819C28.1354 5.64358 27.515 6.60473 27.0063 7.57061C28.5816 7.84358 30.1003 8.61733 31.3701 9.57376C31.4751 9.6546 31.6084 9.74384 31.6704 9.863C31.6446 10.0814 31.4278 10.0908 31.2635 10.1638C30.2483 10.5102 29.3281 11.0294 28.4263 11.6026C29.1019 12.0189 29.7454 12.4924 30.3323 13.0273C30.4173 13.116 30.5192 13.1885 30.4903 13.3276C30.4814 13.4247 30.3375 13.4787 30.262 13.5176C29.8536 13.6955 29.4336 13.8551 29.011 13.9963C28.8929 14.0362 28.8415 13.9927 28.778 13.8976C28.2347 13.021 27.4719 12.2488 26.6887 11.5837C26.0525 11.0488 25.3627 10.5606 24.6236 10.179C24.4856 10.1102 24.3601 10.0441 24.2016 10.0452C23.9045 10.0452 23.6042 10.0567 23.3071 10.0724C21.6284 10.2037 19.9696 10.6158 18.4263 11.2887C17.6058 11.6536 16.7837 12.1034 16.095 12.684C15.9869 12.7685 15.8809 12.8976 15.7491 12.9417C15.4425 12.8961 15.1438 12.7648 14.8541 12.6588C13.8672 12.2919 13.0131 11.6131 12.2861 10.8651C11.705 10.2903 11.2194 9.6441 10.7785 8.95801C10.4525 8.46038 10.1496 7.95591 9.91393 7.40841C9.84306 7.23833 9.74962 7.05985 9.7218 6.87665C9.72338 6.80998 9.78689 6.68767 9.86668 6.70972C10.0305 6.76221 10.1806 6.8588 10.3375 6.92914C10.6499 7.0798 10.9774 7.17481 11.3118 7.26248C11.9454 7.43938 12.6021 7.56641 13.2488 7.69607C13.1848 7.29187 13.1864 6.88662 13.2047 6.47927C13.2761 5.32704 13.578 4.21471 14.011 3.14856C14.3449 2.31864 14.7769 1.53072 15.2851 0.795284C15.8362 0.0010578 16.4672 -0.752223 17.2063 -1.37795C17.3423 -1.47873 17.4924 -1.60997 17.6646 -1.49553C17.778 -1.44566 17.7228 -1.30183 17.716 -1.20787C17.5202 -0.312328 17.6982 0.611032 17.9438 1.47822C18.0793 1.96641 18.2945 2.41786 18.5181 2.87087C18.7055 2.62258 18.9061 2.39213 19.125 2.17114C20.2147 1.06877 21.4877 0.114443 22.7848 -0.730176C23.8494 -1.39632 24.9811 -2.01679 26.1638 -2.44514V-2.44514Z" fill="black"/>
<path d="M26.1281 -2.1055C25.3968 -0.785289 24.9045 0.638333 24.8079 2.15224C24.7958 2.43728 24.8037 2.72337 24.8021 3.00841C24.8577 3.05251 24.9102 3.13964 24.9853 3.13859C25.3181 3.11445 25.6488 3.06248 25.9842 3.06143C26.5769 3.06196 27.1669 3.04621 27.7585 3.09555C28.6163 3.1197 29.4546 3.24463 30.2987 3.38951C29.5522 3.87193 28.8735 4.46825 28.2724 5.12127C27.6625 5.82573 27.1517 6.63256 26.7192 7.45671C26.6751 7.55067 26.6084 7.66038 26.6667 7.76274C26.7239 7.82941 26.7968 7.82258 26.8766 7.83886C27.1953 7.87823 27.5055 7.95854 27.8115 8.05461C29.0509 8.44516 30.2199 9.07613 31.2488 9.86773C30.8619 10.0053 30.4782 10.1475 30.1055 10.3207C29.4871 10.5948 28.8903 10.9507 28.3165 11.3087C28.1958 11.399 27.9055 11.5176 28.0215 11.7113C28.1863 11.8142 28.368 11.8856 28.527 11.999C29.084 12.3748 29.6283 12.7827 30.115 13.2473C29.7517 13.4089 29.3785 13.5438 29.0037 13.6772C28.4782 12.8599 27.821 12.1801 27.1003 11.5349C26.3223 10.8578 25.473 10.2431 24.5396 9.79844C24.431 9.74437 24.3181 9.74069 24.1995 9.74227C22.2325 9.74594 20.263 10.1837 18.4525 10.9449C17.4525 11.3753 16.5066 11.9024 15.6882 12.6273C15.368 12.5297 15.0535 12.4137 14.7444 12.2851C14.1433 12.0284 13.6147 11.662 13.1213 11.2368C12.4871 10.6772 11.9087 10.0588 11.4226 9.36537C10.9333 8.65671 10.4598 7.97167 10.1207 7.17482C11.0714 7.59634 12.1569 7.77114 13.1748 7.96274C13.3123 7.96589 13.5092 8.063 13.5648 7.88295C13.5564 7.73964 13.5202 7.59791 13.5039 7.45513C13.4315 6.94384 13.5034 6.39056 13.5638 5.87823C13.8367 4.10447 14.5407 2.39109 15.569 0.921273C16.105 0.156968 16.7008 -0.550119 17.4136 -1.15694C17.3402 -0.688701 17.3412 -0.208911 17.3821 0.26248C17.4861 1.11235 17.7218 1.95802 18.1076 2.72495C18.1979 2.89503 18.2677 3.0903 18.389 3.24043C18.4441 3.30762 18.5737 3.3302 18.6205 3.24201C18.8945 2.77167 19.2898 2.41839 19.6808 2.04148C20.6871 1.10815 21.7916 0.277703 22.9423 -0.468229C23.9512 -1.09972 25.0121 -1.68608 26.1281 -2.1055V-2.1055Z" fill="#6A4E35"/>
</g>
</g>
<defs>
<clipPath id="clip0_7_203">
<rect width="40" height="40" fill="white"/>
</clipPath>
</defs>
</svg>
