<svg width="40" height="40" viewBox="0 0 40 40" fill="none" xmlns="http://www.w3.org/2000/svg">
<g clip-path="url(#clip0_7_228)">
<mask id="mask0_7_228" style="mask-type:luminance" maskUnits="userSpaceOnUse" x="0" y="0" width="40" height="40">
<path d="M40 0H0V40H40V0Z" fill="white"/>
</mask>
<g mask="url(#mask0_7_228)">
<path d="M20.7879 8.65355C22.7732 8.91077 24.6834 9.68452 26.2892 10.8787C26.612 11.1328 26.9443 11.3685 27.2351 11.6619C28.4829 12.8158 29.4781 14.2352 30.1291 15.8063C30.6199 16.9774 30.9018 18.2231 31.0026 19.4882C31.3501 19.5307 31.6876 19.6005 32.0062 19.7507C32.822 20.1144 33.4277 20.8499 33.6745 21.7039C33.8125 22.2058 33.8613 22.7407 33.7648 23.2551C33.6094 24.2399 33.0445 25.1517 32.223 25.7181C31.6487 26.1197 30.9375 26.3496 30.2356 26.3312C29.9663 26.3286 29.7086 26.2472 29.4414 26.2373C29.3443 26.3512 29.2718 26.4913 29.1915 26.6179C28.212 28.1727 26.8519 29.4793 25.2734 30.4184C23.7984 31.2966 22.1291 31.8441 20.4199 32.01C19.8382 32.0467 19.2718 32.1176 18.6886 32.0488C15.9753 31.9281 13.3306 30.8184 11.3317 28.9816C9.8078 27.5879 8.66292 25.7885 8.04875 23.8168C7.67657 22.6173 7.49127 21.3612 7.52014 20.105C7.54744 17.9874 8.17788 15.8751 9.30177 14.0808C10.3044 12.4635 11.7117 11.1108 13.3543 10.1528C14.9096 9.24567 16.6797 8.69974 18.4771 8.58478C19.2466 8.50762 20.0225 8.56536 20.7879 8.65355V8.65355Z" fill="black"/>
<path d="M19.0551 8.87454C21.5994 8.80158 24.1637 9.6462 26.1842 11.1906C26.528 11.4037 26.7994 11.6887 27.0955 11.9591C28.3727 13.147 29.3632 14.6336 29.979 16.2646C30.369 17.294 30.6015 18.3748 30.6908 19.4714C30.2241 19.5102 29.7805 19.5942 29.3585 19.8063C29.2435 19.8604 29.2593 20.0661 29.3942 20.0808C29.5175 20.0929 29.6556 20.0016 29.7742 19.9654C30.5417 19.6835 31.4183 19.737 32.1249 20.1585C32.7385 20.5144 33.1795 21.1118 33.379 21.789C33.5154 22.222 33.5196 22.7029 33.4714 23.1512C33.3401 24.0619 32.8231 24.9218 32.0682 25.4509C31.2435 26.0457 30.117 26.2194 29.1847 25.7764C29.0183 25.7013 28.8729 25.5885 28.7081 25.5113C28.5532 25.4541 28.4519 25.6577 28.5664 25.7606C28.7328 25.9055 28.9517 25.9979 29.1438 26.105C28.0866 27.8976 26.548 29.3963 24.7128 30.3816C23.1275 31.2378 21.3301 31.7218 19.5275 31.7543C18.0771 31.7921 16.6231 31.5423 15.2645 31.0341C13.6729 30.4441 12.2283 29.4892 11.0456 28.273C9.8556 27.0462 8.95009 25.5496 8.41046 23.9281C7.62515 21.5848 7.62778 18.9932 8.42463 16.653C9.00468 14.9176 10.0141 13.3349 11.3312 12.0656C12.8887 10.5575 14.8824 9.51759 17.0073 9.09082C17.6792 8.95853 18.369 8.86824 19.0551 8.87454V8.87454Z" fill="#9E5622"/>
<path d="M31.76 21.2283C31.8981 21.2231 31.9406 21.4278 31.8314 21.4898C31.6377 21.5858 31.4209 21.6352 31.2204 21.7181C30.9149 21.8252 30.6283 21.968 30.3448 22.1234C30.57 22.2462 30.8099 22.3722 31.012 22.5307C31.1474 22.6404 31.2666 22.759 31.2918 22.9402C31.2781 23.1286 31.1485 23.284 31.0057 23.3963C30.6981 23.6409 30.275 23.7732 29.9144 23.9349C29.8225 23.9674 29.6818 24.0394 29.6209 23.9213C29.5674 23.8299 29.6178 23.758 29.7033 23.7181C30.0524 23.5449 30.4834 23.4231 30.7947 23.1848C30.8666 23.1249 30.9726 23.0409 30.9842 22.9423C30.7705 22.6467 30.3322 22.4913 30.0272 22.3076C29.9044 22.2173 29.907 22.085 30.0188 21.9858C30.4004 21.6898 30.9102 21.4997 31.3611 21.336C31.4881 21.2924 31.6251 21.2336 31.76 21.2283V21.2283Z" fill="black"/>
<path d="M20.8928 17.9055C21.7542 17.9323 22.5899 18.2919 23.1988 18.9018C23.5012 19.1963 23.7212 19.548 23.9128 19.9218C24.3259 19.6546 24.7422 19.3927 25.16 19.1328C25.2256 19.19 25.287 19.2509 25.3469 19.3144C25.1805 19.4992 24.9758 19.5974 24.7716 19.7307C24.5212 19.8898 24.2702 20.0472 24.0209 20.2074C24.1873 20.7323 24.2587 21.2777 24.1679 21.8247C24.0603 22.6079 23.6645 23.3396 23.0786 23.8682C22.4708 24.4226 21.6634 24.7459 20.8398 24.7522C20.1584 24.7701 19.4713 24.5696 18.9028 24.1942C18.2498 23.7711 17.7579 23.1176 17.517 22.379C17.2771 21.6179 17.3038 20.7654 17.6109 20.0268C17.8949 19.3244 18.4277 18.7239 19.087 18.3517C19.6282 18.0347 20.2687 17.8871 20.8928 17.9055V17.9055Z" fill="black"/>
<path d="M20.3815 18.2289C21.1505 18.136 21.918 18.3139 22.5547 18.7559C23.2088 19.2011 23.6765 19.9039 23.8387 20.6782C23.9762 21.327 23.9038 22.0179 23.6251 22.6215C23.3038 23.3375 22.6975 23.9286 21.9673 24.2189C21.4308 24.441 20.835 24.5155 20.2623 24.4116C19.4009 24.2724 18.6098 23.7491 18.1442 23.011C17.8503 22.5507 17.6854 22.0168 17.6524 21.4724C17.6203 20.7134 17.8744 19.9423 18.3563 19.3538C18.8534 18.736 19.5962 18.327 20.3815 18.2289V18.2289Z" fill="white"/>
<path d="M13.2834 19.4724C13.8477 19.789 14.2934 20.3008 14.5364 20.9003C14.7196 21.347 14.7747 21.8336 14.7259 22.3123C14.632 23.2115 14.0876 24.0373 13.3034 24.4845C12.4377 24.9906 11.3264 24.9974 10.453 24.506C9.696 24.0866 9.15375 23.3223 9.01464 22.4672C8.91962 22 8.98104 21.5396 9.11385 21.0871C8.80834 20.8966 8.47711 20.7396 8.18262 20.5333C8.08026 20.4756 8.10703 20.3171 8.21831 20.2898C8.30493 20.2646 8.38524 20.3207 8.45978 20.357C8.71333 20.5055 8.96582 20.6541 9.21989 20.8016C9.56529 20.0598 10.1989 19.4787 10.9831 19.2336C11.7401 18.989 12.5926 19.0787 13.2834 19.4724V19.4724Z" fill="black"/>
<path d="M11.4051 19.4378C12.1941 19.2919 13.0292 19.5402 13.6156 20.0861C14.1437 20.5711 14.4502 21.2787 14.4518 21.9953C14.4429 22.4179 14.3353 22.8441 14.1332 23.2163C13.7689 23.8892 13.1022 24.3822 12.3495 24.5234C11.9258 24.6137 11.4975 24.5806 11.0854 24.452C10.0828 24.1433 9.33686 23.2037 9.28069 22.1533C9.22925 21.4819 9.46337 20.8032 9.90274 20.2945C10.2865 19.8467 10.825 19.5428 11.4051 19.4378V19.4378Z" fill="white"/>
<path d="M19.2266 20.115C19.6135 20.0677 20.0251 20.2084 20.2896 20.4976C20.4901 20.7165 20.6193 21.0115 20.6261 21.3097C20.6408 21.6908 20.467 22.0814 20.1678 22.3197C19.8025 22.6257 19.2628 22.6829 18.8366 22.4751C18.3831 22.2598 18.0896 21.7606 18.1342 21.2583C18.171 20.6735 18.6455 20.1816 19.2266 20.115V20.115ZM10.3694 20.884C10.9684 20.6808 11.6471 21.0415 11.8151 21.6499C12.013 22.2635 11.6041 22.9549 10.9736 23.084C10.4156 23.2231 9.80878 22.8982 9.62663 22.3522C9.42085 21.768 9.77098 21.0614 10.3694 20.884V20.884Z" fill="black"/>
<path d="M23.7553 16.7197C23.8388 16.7727 23.812 16.8698 23.8204 16.9549C23.8173 17.5501 23.8178 18.1465 23.8141 18.7417C23.8309 18.8861 23.6871 18.9633 23.5716 19.0042C21.4724 19.7255 19.3658 20.4346 17.2697 21.1627C17.1369 21.1732 17.1207 21.0709 17.0855 20.9706C16.9999 20.6556 16.9123 20.3417 16.8225 20.0283C16.8734 20.3302 16.8739 20.6404 16.8939 20.9454C16.8928 21.021 16.9175 21.1522 16.8419 21.2C16.7396 21.2735 16.6283 21.2068 16.6005 21.0934C16.4094 20.4252 16.2319 19.7507 16.0409 19.0819C16.0204 18.9858 16.0068 18.8766 16.1123 18.8257C16.223 18.8 16.2913 18.8504 16.3222 18.9538C16.3889 19.1927 16.4561 19.432 16.5154 19.673C16.4771 19.3979 16.4661 19.1223 16.4535 18.8451C16.4529 18.7785 16.4461 18.6493 16.5406 18.6462C16.6178 18.6325 16.697 18.6262 16.7732 18.6084C18.9375 17.9921 21.097 17.378 23.2613 16.7596C23.433 16.7139 23.5774 16.6504 23.7553 16.7197ZM8.55636 18.4184C9.27237 18.4913 9.99258 18.494 10.7086 18.5538C11.8131 18.6089 12.9191 18.694 14.023 18.7333C14.432 18.7743 14.8424 18.7921 15.2535 18.8215C15.3989 18.9365 15.3102 19.2457 15.3537 19.4163C15.3831 19.2604 15.3632 19.0535 15.4545 18.9197C15.5674 18.8252 15.7212 18.9108 15.7044 19.0541C15.5805 19.7906 15.454 20.5312 15.3359 21.2682C15.2939 21.422 15.1007 21.4026 15.0582 21.2604C15.044 21.0021 15.0472 20.7412 15.0435 20.4819C14.9894 20.7071 14.9663 20.9381 14.9138 21.1633C14.8913 21.2493 14.8524 21.3123 14.7511 21.2892C12.6787 20.9276 10.5831 20.5423 8.51122 20.1717C8.41253 20.1612 8.36266 20.095 8.34901 20.0005C8.27289 19.5816 8.21778 19.1585 8.13274 18.7412C8.12066 18.6509 8.09389 18.5764 8.16213 18.5008C8.27342 18.3806 8.4099 18.4126 8.55636 18.4184V18.4184Z" fill="black"/>
<path d="M21.9941 25.4955C22.1211 25.548 22.0948 25.674 22.0665 25.7816C21.7106 26.4824 21.2224 27.1034 20.5783 27.5612C19.6759 28.2168 18.5374 28.527 17.4277 28.484C16.0203 28.4336 14.6418 27.852 13.5725 26.9454C13.5515 26.8184 13.5468 26.7507 13.6486 26.6609C16.3694 26.2866 19.2539 25.8719 21.9941 25.4955V25.4955Z" fill="black"/>
<path d="M21.6724 25.8535C21.2435 26.6436 20.5711 27.295 19.7632 27.6903C19.1091 28.0116 18.3669 28.1858 17.6377 28.1727C16.3406 28.1822 15.065 27.6997 14.0377 26.9197C16.5537 26.5738 19.1679 26.1953 21.6724 25.8535V25.8535Z" fill="#8F2E45"/>
<path d="M31.1736 5.41365C31.9563 6.13071 32.497 7.09974 32.6933 8.14331C32.9747 10.3995 32.9778 12.6525 33.318 14.9076C33.5547 16.5764 33.8781 18.3785 34.655 19.8887C35.1967 20.9654 35.7994 22.0142 36.3238 23.0997C36.7768 24.0283 37.0561 25.0562 37.1022 26.0892C37.149 26.6908 37.1222 27.3202 37.0681 27.9202C36.9574 28.8693 36.6582 29.8252 36.15 30.6378C35.7584 31.2835 35.1558 31.7617 34.5442 32.1869C34.4776 32.231 34.4172 32.3386 34.3306 32.3255C34.2282 32.3213 34.1778 32.2163 34.1983 32.1244C34.7684 31.022 34.8865 29.6887 34.5432 28.4987C34.5232 28.4478 34.519 28.3864 34.4681 28.3575C34.224 29.6856 33.676 30.9764 32.8204 32.0262C32.1274 32.8646 31.2408 33.5433 30.1841 33.843C29.3857 34.0798 28.4923 34.0583 27.7148 33.7554C27.6324 33.6619 27.4818 33.5811 27.5427 33.4357C27.9726 32.9764 28.2975 32.379 28.4261 31.7622C28.3322 31.7885 28.2498 31.8493 28.1595 31.8866C27.6765 32.1024 27.1427 32.21 26.6141 32.1942C26.1432 32.1984 25.6009 32.085 25.2319 31.7753C25.1411 31.6903 25.0272 31.6058 25.0608 31.4651C25.4303 30.9822 25.6524 30.3706 25.7343 29.7711C25.7694 29.7228 25.8319 29.6945 25.8792 29.6588C27.2471 28.7029 28.3637 27.443 29.2099 26.0084C29.2655 25.8882 29.3925 25.8619 29.5085 25.9076C30.2272 26.1276 31.013 26.0367 31.6771 25.6924C32.4387 25.3018 33.0256 24.611 33.3101 23.8058C33.4954 23.3097 33.5358 22.7811 33.4813 22.2572C33.3868 21.5244 33.0209 20.8331 32.4398 20.3706C32.1301 20.0735 31.7028 19.8919 31.286 19.8089C30.708 19.6803 30.0828 19.7879 29.5574 20.0525C29.5574 20.6168 29.4603 21.1948 29.3112 21.7386C28.981 22.874 28.3731 24.0105 27.4744 24.7963C27.4062 24.8551 27.3327 24.9354 27.245 24.9612C27.1747 24.9685 27.0608 24.9139 27.0613 24.8315C27.0424 24.7312 27.1495 24.6551 27.2004 24.578C27.4372 24.2483 27.5988 23.8493 27.7222 23.4646C27.9521 22.7249 28.0398 21.927 28.0492 21.1549C28.0324 19.7869 27.782 18.4063 27.2093 17.1575C27.1731 17.0646 27.1148 16.958 27.1563 16.8572C27.2587 16.5942 27.3122 16.316 27.3248 16.0341C27.0965 16.1806 26.855 16.3055 26.6177 16.4367C26.5043 16.4971 26.3374 16.547 26.2382 16.4357C26.1757 16.2572 26.1847 16.0399 26.2009 15.8535C26.2167 15.5354 26.2246 15.2226 26.1999 14.905C25.8387 15.0982 25.5012 15.2966 25.1175 15.4509C24.9894 15.4987 24.8382 15.4457 24.7159 15.4016C24.108 15.1554 23.6109 14.6782 23.1789 14.1974C22.9348 13.9139 22.708 13.6357 22.5605 13.2877C22.424 12.9738 22.37 12.6493 22.3673 12.3076C21.6498 12.6908 20.7358 12.6299 19.9474 12.6357C19.1101 12.6493 18.2582 12.5953 17.4267 12.6934C17.3353 12.7034 17.1778 12.6525 17.1721 12.5428C17.1463 12.3937 17.2629 12.2971 17.3547 12.2C16.6629 12.389 15.9815 12.6577 15.3038 12.8861C15.1196 12.9276 14.9379 13.0163 14.7616 12.9034C14.5752 12.7722 14.6267 12.578 14.6398 12.3827C14.4849 12.3785 14.3243 12.452 14.1789 12.5003C13.4702 12.7738 12.7521 13.0189 12.0282 13.2493C11.5264 13.4 11.0267 13.5144 10.4986 13.5013C10.2477 13.4882 9.99201 13.5465 9.76682 13.6567C8.95422 13.6877 8.04923 13.4409 7.44661 12.874C7.0844 12.5402 6.83558 12.0908 6.76997 11.601C6.73742 11.2451 6.74792 10.8903 6.87023 10.5507C7.16839 9.67506 7.87128 8.99633 8.676 8.5706C8.76262 8.53018 8.8802 8.44514 8.97417 8.50131C9.06656 8.55538 9.07705 8.67716 9.02666 8.76273C8.26183 9.55643 8.17837 10.8646 8.72377 11.8C8.95789 12.1816 9.29543 12.5449 9.75002 12.643C9.88545 11.853 10.3169 11.1186 10.8251 10.5102C11.5458 9.64567 12.4645 8.91916 13.4172 8.32598C15.2461 7.2 17.3196 6.44777 19.4482 6.15695C20.623 6.0126 21.7841 5.99737 22.9374 6.29659C23.8314 5.13648 25.1679 4.34121 26.6135 4.10971C28.224 3.82677 29.9668 4.29869 31.1736 5.41365V5.41365Z" fill="black"/>
<path d="M27.2954 4.35119C28.7621 4.26457 30.2482 4.83308 31.2445 5.92127C31.8172 6.53754 32.212 7.31864 32.38 8.14226C32.4114 8.50709 32.4786 8.86667 32.496 9.23308C32.5605 9.74069 32.5695 10.2535 32.6267 10.7612C32.687 11.9465 32.7894 13.1507 32.9238 14.3302C33.1327 15.8556 33.3479 17.3286 33.8503 18.7932C34.1516 19.6688 34.5878 20.4404 35.0177 21.2535C35.4267 22.0368 35.8655 22.8126 36.2183 23.6226C36.844 25.0598 36.9301 26.6976 36.7117 28.2341C36.5432 29.2047 36.1658 30.2016 35.5332 30.9675C35.2939 31.2278 35.024 31.484 34.7322 31.6845C34.9632 31.0383 35.0634 30.3433 35.0319 29.6588C35.0172 28.9916 34.8681 28.2987 34.5516 27.7076C34.4886 27.5848 34.2834 27.6005 34.2519 27.7402C34.0597 29.3197 33.433 30.906 32.3527 32.0908C31.624 32.8892 30.6828 33.4898 29.601 33.6525C29.0477 33.7281 28.4361 33.6971 27.9117 33.4934C28.3443 32.9239 28.7395 32.1722 28.7353 31.4425C28.7469 31.2971 28.5563 31.2693 28.466 31.3507C28.1626 31.5732 27.8177 31.7092 27.454 31.799C26.855 31.9339 26.2099 31.9491 25.6456 31.6777C25.5821 31.6357 25.4466 31.5816 25.423 31.5118C25.7191 31.0331 25.9275 30.5045 26.0256 29.9496C26.1033 29.8467 26.2419 29.7853 26.3395 29.6992C27.5936 28.7617 28.6366 27.5732 29.4335 26.2268C29.687 26.2446 29.9275 26.3218 30.1836 26.3255C31.3138 26.378 32.4156 25.7895 33.0755 24.8835C33.5185 24.2913 33.7674 23.5706 33.8115 22.8347C33.844 21.8436 33.4786 20.8598 32.7164 20.2074C32.9023 19.9008 32.9947 19.5622 33.0592 19.2126C33.2235 18.1801 33.0671 17.0745 32.8288 16.0635C32.58 15.0898 32.224 14.1486 31.7269 13.2735C31.539 12.4814 31.286 11.7092 30.8981 10.9906C30.2408 9.74436 29.2251 8.69712 27.9884 8.01995C27.9254 7.98268 27.8576 7.97586 27.7873 7.96274C27.2524 7.20998 26.3805 6.73649 25.4597 6.684C25.1946 6.6399 24.9416 6.6798 24.6776 6.6861C24.5017 6.55486 24.3096 6.51707 24.0949 6.50394C23.7794 6.47875 23.5259 6.60053 23.2303 6.4273C24.1952 5.19318 25.729 4.40526 27.2954 4.35119V4.35119Z" fill="#562306"/>
<path d="M22.7291 6.56378C22.7863 6.58268 22.8493 6.57743 22.8813 6.63412C22.7548 6.66772 22.6325 6.71129 22.5102 6.75801C21.1281 7.16903 19.8021 7.78478 18.5721 8.53491C18.1422 8.79895 17.727 9.09029 17.3391 9.41313C17.2582 9.47822 17.2546 9.58793 17.3123 9.67034C17.3926 9.71444 17.4577 9.71496 17.5296 9.65512C18.2771 9.04252 19.1123 8.54593 19.9727 8.10971C20.9973 7.59843 22.0882 7.15066 23.2089 6.90551C23.5438 6.85197 23.9186 6.77061 24.253 6.83412C24.3721 6.85407 24.4777 6.92441 24.5942 6.95906C24.7527 7.0252 24.9197 6.97166 25.0918 6.97376C25.3191 6.97848 25.5517 6.9853 25.7742 7.03622C26.4325 7.14856 27.0372 7.51024 27.4525 8.03255C27.9826 8.69029 28.2372 9.52494 28.3627 10.3486C28.4126 10.748 28.4588 11.1459 28.4446 11.5486C28.4467 11.6625 28.4493 11.8478 28.6084 11.8378C28.7212 11.842 28.7585 11.7538 28.7574 11.6546C28.7648 10.5449 28.6005 9.45985 28.1092 8.45565C28.8514 8.89344 29.5018 9.49974 30.0204 10.1864C30.7884 11.2079 31.2472 12.3984 31.4792 13.6488C31.7286 14.9848 31.705 16.3974 31.5323 17.7423C31.5044 17.9139 31.464 18.1003 31.4745 18.2745C31.5454 18.4289 31.749 18.3911 31.7653 18.2231C31.8535 17.7564 31.905 17.2719 31.9317 16.7979C32.0157 15.9438 31.979 15.1129 31.8887 14.263C31.9055 14.3701 31.9637 14.4493 32.0031 14.548C32.4635 15.6751 32.7664 16.8919 32.8147 18.1102C32.8273 18.7228 32.7821 19.4404 32.4813 19.989C31.6336 19.3832 30.4913 19.2856 29.5443 19.7123C29.5139 19.6257 29.516 19.4887 29.3963 19.4808C29.306 19.4667 29.2168 19.5375 29.2246 19.6315C29.2383 19.9801 29.2483 20.3354 29.211 20.6829C29.0666 21.7711 28.6593 22.8299 28.0257 23.727L27.9769 23.7512C27.9832 23.6504 28.0168 23.5596 28.0472 23.4646C28.3065 22.5853 28.3763 21.6714 28.3496 20.7585C28.2897 19.4493 28.0115 18.1024 27.4383 16.9176C27.5627 16.6063 27.5916 16.2882 27.6362 15.9585C27.6451 15.8546 27.6645 15.7407 27.6414 15.6378C27.5763 15.5123 27.421 15.5428 27.338 15.6315C27.1695 15.79 26.9721 15.9003 26.7674 16.0042C26.684 16.0436 26.5958 16.1155 26.5023 16.1171C26.5039 15.9239 26.5239 15.7323 26.5165 15.5381C26.5107 15.231 26.5412 14.8898 26.4651 14.5906C26.3333 14.4756 26.201 14.5449 26.0861 14.6394C25.7601 14.8221 25.4267 14.9953 25.084 15.1449C24.9942 15.1848 24.9107 15.157 24.8257 15.1218C24.3265 14.9034 23.8892 14.5123 23.5228 14.1155C23.2509 13.8116 22.9632 13.4824 22.8189 13.0961C22.6021 12.5402 22.6404 11.894 22.9239 11.3685C22.9753 11.2803 22.948 11.1475 22.8351 11.1339C22.6908 11.105 22.6262 11.2919 22.5695 11.3906C22.4708 11.6278 22.3616 11.9606 22.1323 12.1071C21.6273 12.3129 21.1149 12.3318 20.5774 12.3276C19.737 12.3255 18.8971 12.3197 18.0567 12.3302C17.9197 12.3318 17.7874 12.3564 17.6498 12.368C17.7506 12.2147 17.9286 12.1029 17.812 11.9008C17.6435 11.7953 17.4761 11.8619 17.2955 11.895C16.6042 12.0793 15.927 12.3454 15.2493 12.5769C15.1485 12.6068 15.0357 12.652 14.9307 12.6341C14.9412 12.4824 15.0052 12.2756 14.8829 12.1533C14.7727 12.0378 14.6325 12.0504 14.4882 12.0782C14.1239 12.1706 13.7947 12.3223 13.4383 12.4457C12.7616 12.6814 12.0798 12.9328 11.3821 13.1003C10.9847 13.1916 10.5879 13.2016 10.1826 13.2089C9.99052 13.2084 9.85246 13.3433 9.65876 13.3307C9.19629 13.3675 8.7186 13.2567 8.29761 13.0677C7.78684 12.8388 7.35482 12.442 7.1627 11.9071C6.98947 11.4399 7.04144 10.9459 7.22464 10.4908C7.46243 9.91076 7.88291 9.47507 8.38107 9.10919C8.29498 9.31549 8.20574 9.51811 8.1543 9.73701C7.91493 10.7328 8.17215 11.8766 8.94642 12.578C9.21939 12.769 9.47136 12.9412 9.81781 12.9528C9.93645 12.947 10.0152 12.8829 10.0378 12.7648C10.2141 11.685 10.9832 10.7071 11.758 9.97166C13.1338 8.69134 14.8745 7.76221 16.6409 7.14541C17.3286 6.91076 18.0288 6.72336 18.7412 6.58321C20.0351 6.34489 21.4399 6.25985 22.7291 6.56378V6.56378Z" fill="#562306"/>
</g>
</g>
<defs>
<clipPath id="clip0_7_228">
<rect width="40" height="40" fill="white"/>
</clipPath>
</defs>
</svg>
