<svg width="40" height="40" viewBox="0 0 40 40" fill="none" xmlns="http://www.w3.org/2000/svg">
<g clip-path="url(#clip0_7_148)">
<mask id="mask0_7_148" style="mask-type:luminance" maskUnits="userSpaceOnUse" x="0" y="0" width="40" height="40">
<path d="M40 0H0V40H40V0Z" fill="white"/>
</mask>
<g mask="url(#mask0_7_148)">
<path d="M20.788 8.65355C22.7733 8.91077 24.6835 9.68452 26.2893 10.8787C26.6121 11.1328 26.9444 11.3685 27.2352 11.6619C28.483 12.8158 29.4783 14.2352 30.1292 15.8063C30.62 16.9774 30.9019 18.2231 31.0027 19.4882C31.3502 19.5307 31.6877 19.6005 32.0063 19.7507C32.8221 20.1144 33.4279 20.8499 33.6746 21.7039C33.8126 22.2058 33.8615 22.7407 33.7649 23.2551C33.6095 24.2399 33.0447 25.1517 32.2231 25.7181C31.6489 26.1197 30.9376 26.3496 30.2357 26.3312C29.9665 26.3286 29.7087 26.2472 29.4415 26.2373C29.3444 26.3512 29.272 26.4913 29.1917 26.6179C28.2121 28.1727 26.852 29.4793 25.2735 30.4184C23.7985 31.2966 22.1292 31.8441 20.42 32.01C19.8384 32.0467 19.272 32.1176 18.6888 32.0488C15.9754 31.9281 13.3308 30.8184 11.3318 28.9816C9.80793 27.5879 8.66304 25.7885 8.04887 23.8168C7.67669 22.6173 7.49139 21.3612 7.52026 20.105C7.54756 17.9874 8.178 15.8751 9.30189 14.0808C10.3045 12.4635 11.7119 11.1108 13.3544 10.1528C14.9098 9.24567 16.6798 8.69974 18.4772 8.58478C19.2468 8.50762 20.0226 8.56536 20.788 8.65355V8.65355Z" fill="black"/>
<path d="M19.0551 8.87454C21.5994 8.80158 24.1637 9.6462 26.1842 11.1906C26.528 11.4037 26.7994 11.6887 27.0955 11.9591C28.3727 13.147 29.3632 14.6336 29.979 16.2646C30.369 17.294 30.6015 18.3748 30.6908 19.4714C30.2241 19.5102 29.7805 19.5942 29.3585 19.8063C29.2435 19.8604 29.2593 20.0661 29.3942 20.0808C29.5175 20.0929 29.6556 20.0016 29.7742 19.9654C30.5417 19.6835 31.4183 19.737 32.1249 20.1585C32.7385 20.5144 33.1795 21.1118 33.379 21.789C33.5154 22.222 33.5196 22.7029 33.4714 23.1512C33.3401 24.0619 32.8231 24.9218 32.0682 25.4509C31.2435 26.0457 30.117 26.2194 29.1847 25.7764C29.0183 25.7013 28.8729 25.5885 28.7081 25.5113C28.5532 25.4541 28.4519 25.6577 28.5664 25.7606C28.7328 25.9055 28.9517 25.9979 29.1438 26.105C28.0866 27.8976 26.548 29.3963 24.7128 30.3816C23.1275 31.2378 21.3301 31.7218 19.5275 31.7543C18.0771 31.7921 16.6231 31.5423 15.2645 31.0341C13.6729 30.4441 12.2283 29.4892 11.0456 28.273C9.8556 27.0462 8.95009 25.5496 8.41046 23.9281C7.62515 21.5848 7.62778 18.9932 8.42463 16.653C9.00468 14.9176 10.0141 13.3349 11.3312 12.0656C12.8887 10.5575 14.8824 9.51759 17.0073 9.09082C17.6792 8.95853 18.369 8.86824 19.0551 8.87454V8.87454Z" fill="#ECAD80"/>
<path d="M31.7602 21.2284C31.8982 21.2231 31.9407 21.4278 31.8315 21.4898C31.6378 21.5858 31.421 21.6352 31.2205 21.7181C30.915 21.8252 30.6284 21.968 30.3449 22.1234C30.5701 22.2462 30.81 22.3722 31.0121 22.5307C31.1476 22.6404 31.2667 22.7591 31.2919 22.9402C31.2783 23.1286 31.1486 23.284 31.0058 23.3963C30.6982 23.641 30.2751 23.7732 29.9145 23.9349C29.8226 23.9675 29.6819 24.0394 29.621 23.9213C29.5675 23.8299 29.6179 23.758 29.7035 23.7181C30.0525 23.5449 30.4835 23.4231 30.7948 23.1848C30.8667 23.1249 30.9727 23.041 30.9843 22.9423C30.7706 22.6467 30.3323 22.4913 30.0273 22.3076C29.9045 22.2173 29.9071 22.085 30.0189 21.9858C30.4006 21.6898 30.9103 21.4997 31.3612 21.336C31.4882 21.2924 31.6252 21.2336 31.7602 21.2284V21.2284Z" fill="black"/>
<path d="M20.8929 17.9055C21.7544 17.9323 22.59 18.2919 23.199 18.9018C23.5013 19.1963 23.7213 19.548 23.9129 19.9218C24.326 19.6546 24.7423 19.3927 25.1601 19.1328C25.2257 19.19 25.2872 19.2509 25.347 19.3144C25.1806 19.4992 24.9759 19.5974 24.7717 19.7307C24.5213 19.8898 24.2704 20.0472 24.021 20.2074C24.1874 20.7323 24.2588 21.2777 24.168 21.8247C24.0604 22.6079 23.6646 23.3396 23.0788 23.8682C22.4709 24.4226 21.6635 24.7459 20.8399 24.7522C20.1586 24.7701 19.4714 24.5696 18.9029 24.1942C18.2499 23.7711 17.758 23.1176 17.5171 22.379C17.2772 21.6179 17.304 20.7654 17.611 20.0268C17.895 19.3244 18.4278 18.7239 19.0872 18.3517C19.6284 18.0347 20.2688 17.8871 20.8929 17.9055V17.9055Z" fill="black"/>
<path d="M20.3816 18.2289C21.1506 18.136 21.9181 18.3139 22.5548 18.7559C23.2089 19.2011 23.6766 19.9039 23.8388 20.6782C23.9764 21.327 23.9039 22.0179 23.6252 22.6215C23.3039 23.3375 22.6976 23.9286 21.9674 24.2189C21.431 24.441 20.8352 24.5155 20.2625 24.4116C19.401 24.2724 18.61 23.7491 18.1443 23.011C17.8504 22.5507 17.6855 22.0168 17.6525 21.4724C17.6205 20.7134 17.8745 19.9423 18.3564 19.3538C18.8535 18.736 19.5963 18.327 20.3816 18.2289V18.2289Z" fill="white"/>
<path d="M13.2835 19.4724C13.8478 19.789 14.2935 20.3008 14.5365 20.9003C14.7197 21.347 14.7749 21.8336 14.726 22.3123C14.6321 23.2115 14.0877 24.0373 13.3035 24.4845C12.4379 24.9906 11.3266 24.9974 10.4531 24.506C9.69613 24.0866 9.15387 23.3223 9.01476 22.4672C8.91975 22 8.98116 21.5396 9.11397 21.0871C8.80846 20.8966 8.47723 20.7396 8.18274 20.5333C8.08038 20.4756 8.10715 20.3171 8.21844 20.2898C8.30505 20.2646 8.38536 20.3207 8.45991 20.357C8.71345 20.5055 8.96594 20.6541 9.22001 20.8016C9.56542 20.0598 10.199 19.4787 10.9833 19.2336C11.7402 18.989 12.5927 19.0787 13.2835 19.4724V19.4724Z" fill="black"/>
<path d="M11.4052 19.4378C12.1942 19.2919 13.0294 19.5402 13.6157 20.0861C14.1438 20.5711 14.4504 21.2787 14.4519 21.9953C14.443 22.4179 14.3354 22.8441 14.1333 23.2163C13.769 23.8892 13.1023 24.3822 12.3496 24.5234C11.926 24.6137 11.4976 24.5806 11.0855 24.452C10.0829 24.1433 9.33698 23.2037 9.28081 22.1533C9.22937 21.4819 9.46349 20.8032 9.90286 20.2945C10.2866 19.8467 10.8252 19.5428 11.4052 19.4378V19.4378Z" fill="white"/>
<path d="M19.2267 20.115C19.6136 20.0677 20.0252 20.2084 20.2897 20.4976C20.4903 20.7165 20.6194 21.0115 20.6262 21.3097C20.6409 21.6908 20.4672 22.0814 20.168 22.3197C19.8026 22.6257 19.263 22.6829 18.8367 22.4751C18.3832 22.2598 18.0897 21.7606 18.1344 21.2583C18.1711 20.6735 18.6456 20.1816 19.2267 20.115V20.115ZM10.3695 20.884C10.9685 20.6808 11.6472 21.0415 11.8152 21.6499C12.0131 22.2635 11.6042 22.9549 10.9737 23.084C10.4157 23.2231 9.8089 22.8982 9.62675 22.3522C9.42098 21.768 9.77111 21.0614 10.3695 20.884V20.884Z" fill="black"/>
<path d="M23.7554 16.7197C23.8389 16.7727 23.8121 16.8698 23.8205 16.9549C23.8174 17.5501 23.8179 18.1465 23.8142 18.7417C23.831 18.8861 23.6872 18.9633 23.5717 19.0042C21.4725 19.7255 19.3659 20.4346 17.2699 21.1627C17.1371 21.1732 17.1208 21.0709 17.0856 20.9706C17.0001 20.6556 16.9124 20.3417 16.8226 20.0283C16.8735 20.3302 16.8741 20.6404 16.894 20.9454C16.893 21.021 16.9176 21.1522 16.842 21.2C16.7397 21.2735 16.6284 21.2068 16.6006 21.0934C16.4095 20.4252 16.2321 19.7507 16.041 19.0819C16.0205 18.9858 16.0069 18.8766 16.1124 18.8257C16.2231 18.8 16.2914 18.8504 16.3224 18.9538C16.389 19.1927 16.4562 19.432 16.5155 19.673C16.4772 19.3979 16.4662 19.1223 16.4536 18.8451C16.4531 18.7785 16.4462 18.6493 16.5407 18.6462C16.6179 18.6325 16.6972 18.6262 16.7733 18.6084C18.9376 17.9921 21.0972 17.378 23.2615 16.7596C23.4331 16.7139 23.5775 16.6504 23.7554 16.7197ZM8.55648 18.4184C9.27249 18.4913 9.9927 18.494 10.7087 18.5538C11.8132 18.6089 12.9192 18.694 14.0231 18.7333C14.4321 18.7743 14.8426 18.7921 15.2536 18.8215C15.399 18.9365 15.3103 19.2457 15.3539 19.4163C15.3833 19.2604 15.3633 19.0535 15.4546 18.9197C15.5675 18.8252 15.7213 18.9108 15.7045 19.0541C15.5806 19.7906 15.4541 20.5312 15.336 21.2682C15.294 21.422 15.1008 21.4026 15.0583 21.2604C15.0441 21.0021 15.0473 20.7412 15.0436 20.4819C14.9896 20.7071 14.9665 20.9381 14.914 21.1633C14.8914 21.2493 14.8525 21.3123 14.7512 21.2892C12.6788 20.9276 10.5833 20.5423 8.51134 20.1717C8.41265 20.1612 8.36278 20.095 8.34913 20.0005C8.27302 19.5816 8.2179 19.1585 8.13286 18.7412C8.12079 18.6509 8.09401 18.5764 8.16226 18.5008C8.27354 18.3806 8.41003 18.4126 8.55648 18.4184V18.4184Z" fill="black"/>
<path d="M17.5443 25.0908C18.3564 25.1885 19.1858 25.3806 19.8771 25.8362C20.2477 26.0793 20.5858 26.432 20.684 26.8766C20.8079 27.3281 20.4939 27.8336 20.0703 27.9984C19.6913 28.1575 19.3344 28.0929 18.9496 28.0074C18.6367 27.9575 18.3223 27.9234 18.0052 27.9108C16.821 27.8609 15.6357 27.9554 14.4782 28.2126C14.1764 28.2656 13.8945 28.3858 13.5963 28.4074C13.2561 28.4147 12.9097 28.2467 12.7144 27.9659C12.5527 27.7459 12.4824 27.4604 12.4892 27.1906C12.5212 26.7832 12.7722 26.4089 13.0756 26.1475C13.589 25.6955 14.2787 25.4299 14.9344 25.2651C15.789 25.0646 16.6703 25.0137 17.5443 25.0908V25.0908Z" fill="black"/>
<path d="M18.1086 25.4908C17.57 25.884 16.886 26.0945 16.2293 26.1696C15.4876 26.2315 14.7501 26.1785 14.0514 25.9066C14.5165 25.6578 15.0719 25.5417 15.5879 25.4483C16.4309 25.3349 17.2713 25.3223 18.1086 25.4908V25.4908Z" fill="white"/>
<path d="M18.5181 25.58C19.0992 25.7496 19.7023 25.9853 20.1154 26.4472C20.3349 26.6971 20.4792 27.0367 20.3254 27.3601C20.1674 27.6835 19.8183 27.8094 19.475 27.779C18.2976 27.5444 17.0461 27.5491 15.8551 27.6714C15.212 27.7554 14.5879 27.8493 13.9632 28.0299C13.6656 28.1024 13.3695 28.1444 13.1144 27.9354C12.7684 27.6598 12.7254 27.169 12.9312 26.7942C13.1107 26.4877 13.3978 26.2556 13.6997 26.0772C13.9139 26.211 14.1432 26.2709 14.3842 26.3381C15.5327 26.6362 16.844 26.5459 17.9018 25.9858C18.1254 25.8751 18.3112 25.716 18.5181 25.58V25.58Z" fill="#8F2E45"/>
<path d="M28.8189 2.78583C29.5139 2.79843 30.2 3.0483 30.736 3.49239C30.7995 3.54384 30.7837 3.64515 30.7391 3.70552C30.6509 3.75959 30.5454 3.72704 30.4457 3.72389C30.1491 3.68767 29.8394 3.75014 29.5543 3.83098C28.8766 4.04095 28.3396 4.4861 27.9066 5.03728C28.2541 4.92966 28.6116 4.86457 28.9764 4.87507C29.8625 4.90499 30.7003 5.19686 31.4546 5.65302C32.4163 6.23098 33.252 7.08977 33.7344 8.10814C34.011 8.71969 34.179 9.45722 34.0042 10.1192C33.8887 10.6105 33.5801 11.0457 33.1549 11.3181C32.8089 11.548 32.422 11.642 32.0163 11.7024C32.1906 11.9916 32.3837 12.2588 32.5265 12.5664C32.9486 13.4452 33.1276 14.4693 33.2284 15.4326C33.2499 15.8168 33.2793 16.2032 33.2871 16.5879C33.2583 17.1213 33.2693 17.6378 33.1853 18.1633C33.1265 18.6903 33.0294 19.2257 32.8525 19.7265C32.779 19.9144 32.6693 20.1554 32.4871 20.2604C32.3984 20.315 32.3134 20.2452 32.2341 20.2074C31.7984 19.9449 31.284 19.7885 30.7732 19.7963C30.7391 20.2661 30.6472 20.7249 30.4451 21.1528C30.0892 21.9297 29.4189 22.5774 28.5832 22.8021C28.1323 22.9312 27.6976 22.915 27.2509 22.7822C27.1438 22.7501 27.1323 22.6089 27.2173 22.5454C27.358 22.4221 27.5102 22.3239 27.6252 22.1727C28.0656 21.6236 28.3081 20.9029 28.3911 20.2105C28.4352 19.6882 28.431 19.0887 28.1449 18.6284C28.0577 18.4782 27.9139 18.4163 27.7995 18.2961C27.7491 17.9197 27.6814 17.5549 27.5076 17.2121C27.4567 17.0887 27.3627 16.9675 27.4367 16.8331C27.5207 16.6619 27.6283 16.5013 27.7249 16.3365C27.5433 16.3559 27.3795 16.3643 27.2373 16.2305C26.9669 15.9727 26.7916 15.5979 26.6971 15.241C26.6357 15.0095 26.5265 14.779 26.4997 14.5412C26.4955 14.4625 26.5507 14.4189 26.621 14.4032C26.8462 14.3428 27.0221 14.2184 27.2189 14.095C27.4189 13.9643 27.548 13.7785 27.6719 13.5785C27.2493 13.6221 26.811 13.6257 26.3927 13.5475C25.8231 13.4336 25.3465 13.169 24.8357 12.9087C24.5895 12.7717 24.357 12.6556 24.2131 12.4C23.6472 12.2609 23.0819 12.1234 22.5218 11.9617C21.5979 11.7071 20.7039 11.4068 19.7375 11.3669C18.8919 11.3249 18.031 11.4394 17.2068 11.6273C16.9585 11.6798 16.7465 11.7937 16.5417 11.9391L16.4016 11.8667C16.4231 11.5008 16.6409 11.1386 16.8042 10.8168C16.4016 11.1218 16.0226 11.4814 15.7239 11.8898C15.6493 11.9869 15.6026 12.1228 15.5139 12.2042C15.2766 12.2761 14.9979 12.2389 14.7507 12.2488C14.3969 12.2577 14.0488 12.2158 13.6971 12.1942C13.3722 12.2919 13.0677 12.4724 12.7486 12.5911C12.0472 12.8556 11.3276 13.0105 10.579 12.8656C10.3858 13.0698 10.2095 13.2829 10.0483 13.5134C9.63832 14.1003 9.27034 14.715 8.95066 15.3559C8.63202 15.9617 8.43412 16.5958 8.221 17.2436C8.14908 17.4982 8.11916 17.7617 8.04724 18.0168C7.98793 18.2242 7.97953 18.4383 7.94068 18.6488C7.82415 18.7732 7.59895 18.8042 7.45092 18.8945C7.02152 19.1339 6.65722 19.5176 6.36588 19.9097C5.99843 20.4147 5.69134 21.0026 5.56483 21.6179C5.52126 21.8163 5.53858 22.0105 5.52126 22.21C5.45197 22.3239 5.30604 22.3375 5.24305 22.2105C5.04515 21.7738 4.97953 21.2635 4.979 20.7874C5.02047 18.8735 6.31759 17.0467 8.07559 16.3129C7.86772 15.7864 7.8 15.2079 7.78058 14.6457C7.75591 14.0877 7.86457 13.5601 7.97481 13.0173C8.12809 12.348 8.36851 11.7034 8.76326 11.1375C8.42625 11.0787 8.11549 10.9596 7.87139 10.7113C7.46614 10.3129 7.33648 9.78951 7.30341 9.23885C7.29816 8.44253 7.55696 7.66457 8.00893 7.01155C8.3958 6.45407 8.91549 6.00263 9.56588 5.78478C9.79055 5.21418 10.1648 4.72127 10.6866 4.39318C10.8325 4.32547 10.9244 4.36851 10.9937 4.50709C10.9102 4.74016 10.8688 4.95381 10.8556 5.20211C11.1738 4.97533 11.5349 4.86247 11.9139 4.78846C12.4693 4.6672 13.0693 4.69712 13.6121 4.863C14.042 5.01208 14.4814 5.32809 14.6604 5.76011C14.8556 6.16851 14.8273 6.6819 14.6745 7.09974C15.5449 6.83833 16.4646 6.66982 17.3753 6.69607C17.9113 6.69659 18.453 6.76169 18.969 6.90867C19.3318 7.0063 19.6798 7.20683 20 7.40106C20.1591 7.49397 20.2724 7.61785 20.3717 7.77061C21.3675 7.442 22.4173 7.29187 23.4651 7.34489C24.0068 7.37586 24.548 7.48872 25.0698 7.63518C24.9801 7.41523 24.9066 7.19056 24.8682 6.95539C24.7486 6.34331 24.8646 5.68137 25.1139 5.11497C25.7386 3.69817 27.2656 2.71864 28.8189 2.78583V2.78583Z" fill="black"/>
<path d="M30.0998 3.421C29.2578 3.47717 28.4751 3.94121 27.9166 4.55748C26.9869 5.58216 26.5643 7.0483 26.9134 8.40053C26.4573 8.15643 25.9811 7.93806 25.4903 7.77481C25.2515 7.37796 25.1202 6.92126 25.1313 6.4567C25.1202 5.67612 25.4557 4.91969 25.968 4.34174C26.5916 3.6336 27.505 3.15433 28.451 3.09292C29.02 3.04305 29.5922 3.15958 30.0998 3.421V3.421ZM10.5968 4.8273C10.5002 5.26667 10.5569 5.69187 10.6 6.13176C10.6362 6.56956 10.7606 7.01155 10.8945 7.42835C11.0373 7.89922 11.3391 8.34174 11.6094 8.75118C11.5417 8.8357 11.4824 8.96851 11.379 9.01155C11.0724 9.15328 10.7706 9.30342 10.4845 9.48504C10.2604 9.37848 10.085 9.20788 9.94119 9.0084C9.67925 8.59108 9.53752 8.10447 9.53122 7.61155C9.50392 6.86615 9.69815 6.09712 10.0688 5.44935C10.2037 5.20473 10.3968 5.01785 10.5968 4.8273Z" fill="#AC6511"/>
<path d="M12.7559 5.02782C13.1969 5.03832 13.6221 5.12651 13.9822 5.39318C14.2305 5.56011 14.3948 5.80157 14.4714 6.08924C14.5801 6.47559 14.4987 6.86824 14.3019 7.20997C13.6467 7.43255 12.9433 7.67717 12.357 8.04777C12.1449 8.17585 11.9617 8.33753 11.7911 8.51601C11.5412 8.14908 11.2919 7.75118 11.1659 7.32231C10.9911 6.76693 10.8688 6.20787 10.8688 5.62257C11.0126 5.49186 11.1297 5.35853 11.3145 5.28294C11.7691 5.09186 12.2635 5.00105 12.7559 5.02782V5.02782ZM31.6813 6.16745C32.506 6.75696 33.2199 7.5727 33.5774 8.53018C33.7412 8.95538 33.8021 9.4168 33.7438 9.86929C33.6803 10.3491 33.4068 10.7942 32.9974 11.0556C32.6525 11.2782 32.2131 11.4058 31.8026 11.3958C31.6703 11.284 31.5648 11.1454 31.4225 11.0425C30.8724 10.6184 30.2157 10.3118 29.6168 9.95748C28.8409 9.52703 28.0897 9.05197 27.3144 8.62047C26.905 7.63832 27.0924 6.44357 27.5905 5.52703C27.9328 5.32756 28.3065 5.20682 28.7044 5.1916C29.7517 5.12073 30.8409 5.56693 31.6813 6.16745ZM9.42832 6.15905C9.16376 7.04409 9.11284 8.09029 9.55063 8.92913C9.69027 9.2399 9.92386 9.47926 10.1947 9.67979C9.72334 9.99737 9.32019 10.39 8.97216 10.8383C8.74171 10.8173 8.52596 10.8026 8.32439 10.6782C7.92491 10.4488 7.72806 10.032 7.64407 9.59475C7.53489 8.87716 7.70602 8.15433 8.04932 7.52231C8.33226 7.00577 8.75588 6.51863 9.28029 6.23832C9.32964 6.21155 9.37846 6.1853 9.42832 6.15905V6.15905ZM18.0031 7.03622C18.3238 7.05512 18.6398 7.11654 18.9474 7.20735C19.243 7.28976 19.5296 7.45354 19.7968 7.6042C19.9207 7.67192 20.0204 7.76535 20.1165 7.86719C19.7191 8.04147 19.3301 8.22782 18.9684 8.46929C18.2472 8.94751 17.6466 9.56693 17.1516 10.2745C17.0619 10.3018 16.9758 10.3297 16.8997 10.3864C16.2949 10.7995 15.7249 11.3333 15.3464 11.9648C14.8524 11.9921 14.3516 11.9748 13.8608 11.9097C13.3485 11.8556 12.7931 11.748 12.3474 11.4772C12.0073 11.2766 11.739 10.948 11.5422 10.61C11.4682 10.4961 11.4545 10.3039 11.339 10.2289C11.2109 10.1874 11.1249 10.316 11.1527 10.4336C11.2157 10.7375 11.4388 11.021 11.6319 11.2567C12.0256 11.7276 12.5863 11.9895 13.18 12.1045C12.5684 12.3732 11.9606 12.5885 11.2865 12.6257C10.8687 12.6383 10.4556 12.5622 10.1285 12.2866C9.93326 12.1475 9.82145 11.9517 9.66239 11.7795C9.52749 11.8462 9.47499 11.9076 9.52696 12.0619C9.67394 12.3549 9.99783 12.578 10.2718 12.7449C9.96895 13.0924 9.70019 13.4714 9.4498 13.8588C9.01305 14.557 8.60465 15.2966 8.30019 16.0625C8.09599 15.3984 8.05452 14.705 8.10649 14.0152C8.20885 13.2572 8.36056 12.5339 8.69704 11.8415C8.97581 11.307 9.33781 10.8202 9.76948 10.3995C10.1968 10.0021 10.6755 9.66929 11.1963 9.40577C11.2283 9.48714 11.243 9.54121 11.3322 9.57113C11.4823 9.558 11.5196 9.44304 11.5915 9.33386C11.8068 8.95748 12.0508 8.61627 12.4151 8.37113C12.8356 8.08556 13.3196 7.88346 13.7952 7.70866C15.1102 7.22205 16.5957 6.85512 18.0031 7.03622V7.03622Z" fill="#AC6511"/>
<path d="M22.1532 7.6882C22.7154 7.60579 23.2677 7.63623 23.8325 7.65776C25.1905 7.84568 26.3721 8.41209 27.5427 9.09608C28.4231 9.61996 29.3076 10.1396 30.2042 10.6341C30.5742 10.8436 30.9322 11.0373 31.2666 11.3045C31.5149 11.5029 31.7007 11.8011 31.874 12.0635C32.4724 12.8704 32.716 13.9297 32.8635 14.906C32.9853 15.8756 33.0294 16.8467 32.9196 17.82C32.8855 18.2494 32.8336 18.6866 32.7343 19.106C32.6635 19.42 32.5889 19.7186 32.4036 19.9874C31.9175 19.6793 31.3375 19.4987 30.7601 19.5066C30.7265 18.6163 30.3128 17.7176 29.5763 17.1953C29.4934 17.1255 29.3448 17.1181 29.3133 17.2415C29.2761 17.3811 29.3931 17.4226 29.4782 17.5024C29.9286 17.8457 30.2294 18.3664 30.3711 18.9092C30.6908 20.116 30.2141 21.5297 29.1553 22.22C28.7091 22.5165 28.2005 22.6184 27.6698 22.5748C28.2708 21.9596 28.5879 21.1045 28.6876 20.262C28.7406 19.895 28.7333 19.5223 28.6588 19.1585C28.5853 18.7449 28.4147 18.3612 28.0572 18.1171C28.0031 17.7675 27.927 17.4278 27.7753 17.106C27.7485 17.0273 27.6918 16.9585 27.7438 16.8782C27.8645 16.6609 28.0336 16.4341 28.1076 16.1953C28.1333 16.0961 28.095 15.9659 27.98 15.9486C27.8236 15.9218 27.6656 16.0667 27.5149 16.0504C27.3952 15.999 27.3081 15.8572 27.2399 15.7512C27.0178 15.4095 26.979 15.053 26.8288 14.663C27.1018 14.4966 27.4346 14.3423 27.6441 14.0992C27.8031 13.9239 27.9044 13.7228 28.0073 13.5123C28.6388 13.3816 29.1889 13.0352 29.5916 12.5339C29.6603 12.4446 29.6283 12.2966 29.5007 12.2956C29.4015 12.2788 29.3459 12.3743 29.2818 12.432C29.0656 12.6646 28.833 12.8688 28.5438 13.0063C27.9496 13.3003 27.264 13.3512 26.6131 13.2798C25.9921 13.1942 25.4902 12.9197 24.9396 12.6446C24.8425 12.5937 24.7501 12.536 24.6572 12.4772C25.0089 12.548 25.3643 12.5848 25.7212 12.6131C26.3049 12.6646 26.9018 12.6068 27.4839 12.5591C27.6357 12.5402 27.6283 12.4478 27.6393 12.3202C27.5238 12.2882 27.4157 12.2625 27.2944 12.2772C26.6981 12.3207 26.106 12.3575 25.5091 12.295C24.2965 12.1753 23.0535 11.7927 21.8792 11.4662C20.9506 11.1974 20.0283 11.0042 19.0551 11.0641C18.3207 11.1092 17.5863 11.2389 16.8677 11.3937C16.8839 11.2997 16.9065 11.2131 16.9564 11.1302C17.4724 10.2362 18.128 9.44201 18.9685 8.83466C19.9118 8.16799 21.0105 7.81209 22.1532 7.6882V7.6882ZM8.13376 16.6205C8.044 16.9092 7.92117 17.1769 7.87235 17.4788C7.8167 17.8142 7.6881 18.1218 7.67497 18.4656C7.32852 18.5921 7.0167 18.7795 6.74794 19.032C6.07025 19.6599 5.55634 20.4856 5.30752 21.3753C5.28285 21.0914 5.27025 20.8095 5.29177 20.5244C5.45502 18.8504 6.58678 17.2851 8.13376 16.6205V16.6205Z" fill="#AC6511"/>
<path d="M29.6845 25.9885C29.9155 26.031 30.1596 26.0163 30.3937 26.0294C30.7281 26.0446 31.0263 25.958 31.3444 25.8719C31.4362 25.8457 31.5061 25.8394 31.5916 25.8887C31.8084 26.0089 31.9764 26.2263 32.0872 26.4441C32.2872 26.8462 32.2956 27.2908 32.242 27.7281C32.1045 28.5365 31.6105 29.3249 30.8877 29.7318C30.7722 29.7969 30.6788 29.8242 30.5759 29.7186C30.5538 29.5827 30.6819 29.4483 30.7171 29.3171C30.7748 29.0924 30.767 28.8462 30.7281 28.6189C30.5838 27.9318 30.1449 27.3066 29.557 26.9249C29.3176 26.758 29.0583 26.7769 28.8982 26.5081C29.031 26.3139 29.1391 26.1034 29.2725 25.9102C29.3969 25.8483 29.5565 25.9648 29.6845 25.9885V25.9885Z" fill="black"/>
<path d="M31.4405 26.1428C31.8888 26.4436 32.0284 27.0541 31.9607 27.5601C31.8767 28.2294 31.5449 28.8294 31.041 29.274C31.1287 28.7228 30.9638 28.1622 30.6872 27.6877C30.3659 27.1417 29.872 26.6714 29.272 26.4488C29.3166 26.3732 29.3617 26.2971 29.4064 26.2215C29.7533 26.3433 30.0877 26.2971 30.4463 26.3139C30.8001 26.326 31.1024 26.211 31.4405 26.1428V26.1428Z" fill="#AC6511"/>
</g>
</g>
<defs>
<clipPath id="clip0_7_148">
<rect width="40" height="40" fill="white"/>
</clipPath>
</defs>
</svg>
