<svg width="40" height="40" viewBox="0 0 40 40" fill="none" xmlns="http://www.w3.org/2000/svg">
<g clip-path="url(#clip0_7_177)">
<mask id="mask0_7_177" style="mask-type:luminance" maskUnits="userSpaceOnUse" x="0" y="0" width="40" height="40">
<path d="M40 0H0V40H40V0Z" fill="white"/>
</mask>
<g mask="url(#mask0_7_177)">
<path d="M20.788 8.65355C22.7733 8.91077 24.6835 9.68452 26.2893 10.8787C26.6121 11.1328 26.9444 11.3685 27.2352 11.6619C28.483 12.8158 29.4783 14.2352 30.1292 15.8063C30.62 16.9774 30.9019 18.2231 31.0027 19.4882C31.3502 19.5307 31.6877 19.6005 32.0063 19.7507C32.8221 20.1144 33.4279 20.8499 33.6746 21.7039C33.8126 22.2058 33.8615 22.7407 33.7649 23.2551C33.6095 24.2399 33.0447 25.1517 32.2231 25.7181C31.6489 26.1197 30.9376 26.3496 30.2357 26.3312C29.9665 26.3286 29.7087 26.2472 29.4415 26.2373C29.3444 26.3512 29.272 26.4913 29.1917 26.6179C28.2121 28.1727 26.852 29.4793 25.2735 30.4184C23.7985 31.2966 22.1292 31.8441 20.42 32.01C19.8384 32.0467 19.272 32.1176 18.6888 32.0488C15.9754 31.9281 13.3308 30.8184 11.3318 28.9816C9.80793 27.5879 8.66304 25.7885 8.04887 23.8168C7.67669 22.6173 7.49139 21.3612 7.52026 20.105C7.54756 17.9874 8.178 15.8751 9.30189 14.0808C10.3045 12.4635 11.7119 11.1108 13.3544 10.1528C14.9098 9.24567 16.6798 8.69974 18.4772 8.58478C19.2468 8.50762 20.0226 8.56536 20.788 8.65355V8.65355Z" fill="black"/>
<path d="M19.0551 8.87454C21.5994 8.80158 24.1637 9.6462 26.1842 11.1906C26.528 11.4037 26.7994 11.6887 27.0955 11.9591C28.3727 13.147 29.3632 14.6336 29.979 16.2646C30.369 17.294 30.6015 18.3748 30.6908 19.4714C30.2241 19.5102 29.7805 19.5942 29.3585 19.8063C29.2435 19.8604 29.2593 20.0661 29.3942 20.0808C29.5175 20.0929 29.6556 20.0016 29.7742 19.9654C30.5417 19.6835 31.4183 19.737 32.1249 20.1585C32.7385 20.5144 33.1795 21.1118 33.379 21.789C33.5154 22.222 33.5196 22.7029 33.4714 23.1512C33.3401 24.0619 32.8231 24.9218 32.0682 25.4509C31.2435 26.0457 30.117 26.2194 29.1847 25.7764C29.0183 25.7013 28.8729 25.5885 28.7081 25.5113C28.5532 25.4541 28.4519 25.6577 28.5664 25.7606C28.7328 25.9055 28.9517 25.9979 29.1438 26.105C28.0866 27.8976 26.548 29.3963 24.7128 30.3816C23.1275 31.2378 21.3301 31.7218 19.5275 31.7543C18.0771 31.7921 16.6231 31.5423 15.2645 31.0341C13.6729 30.4441 12.2283 29.4892 11.0456 28.273C9.8556 27.0462 8.95009 25.5496 8.41046 23.9281C7.62515 21.5848 7.62778 18.9932 8.42463 16.653C9.00468 14.9176 10.0141 13.3349 11.3312 12.0656C12.8887 10.5575 14.8824 9.51759 17.0073 9.09082C17.6792 8.95853 18.369 8.86824 19.0551 8.87454V8.87454Z" fill="#9E5622"/>
<path d="M31.7602 21.2283C31.8982 21.2231 31.9407 21.4278 31.8315 21.4898C31.6378 21.5858 31.421 21.6352 31.2205 21.7181C30.915 21.8252 30.6284 21.968 30.3449 22.1234C30.5701 22.2462 30.81 22.3722 31.0121 22.5307C31.1476 22.6404 31.2667 22.759 31.2919 22.9402C31.2783 23.1286 31.1486 23.284 31.0058 23.3963C30.6982 23.6409 30.2751 23.7732 29.9145 23.9349C29.8226 23.9674 29.6819 24.0394 29.621 23.9213C29.5675 23.8299 29.6179 23.758 29.7035 23.7181C30.0525 23.5449 30.4835 23.4231 30.7948 23.1848C30.8667 23.1249 30.9727 23.0409 30.9843 22.9423C30.7706 22.6467 30.3323 22.4913 30.0273 22.3076C29.9045 22.2173 29.9071 22.085 30.0189 21.9858C30.4006 21.6898 30.9103 21.4997 31.3612 21.336C31.4882 21.2924 31.6252 21.2336 31.7602 21.2283V21.2283Z" fill="black"/>
<path d="M22.3816 18.2997C23.0147 18.6336 23.5323 19.1648 23.8483 19.8068C24.1412 19.6257 24.4394 19.4541 24.7318 19.2719C24.8137 19.2231 24.8966 19.1701 24.9885 19.1428C25.0898 19.1722 25.1339 19.2115 25.1312 19.3234C25.1066 19.3916 25.0394 19.4283 24.9827 19.4682C24.6436 19.6756 24.2966 19.8709 23.9638 20.0882C24.2824 20.8315 24.2772 21.7249 24.0063 22.4824C23.7307 23.2609 23.1601 23.9297 22.4368 24.3276C21.7507 24.7139 20.9202 24.842 20.1486 24.6955C19.2105 24.5255 18.3606 23.9412 17.8651 23.127C17.5365 22.601 17.357 21.9858 17.3591 21.3648C17.3386 20.5108 17.6661 19.6577 18.242 19.0283C18.7391 18.4814 19.4247 18.0861 20.1559 17.9633C20.9055 17.8168 21.7076 17.9433 22.3816 18.2997V18.2997Z" fill="black"/>
<path d="M20.378 18.2294C21.1475 18.1354 21.9166 18.3129 22.5544 18.7554C23.1481 19.1601 23.5942 19.78 23.7859 20.473C23.9921 21.1748 23.9318 21.9569 23.6252 22.6215C23.2992 23.3491 22.6777 23.9475 21.9323 24.2325C21.4079 24.4441 20.8194 24.5134 20.2625 24.4115C19.4016 24.273 18.61 23.7491 18.1444 23.0115C17.8504 22.5506 17.6851 22.0157 17.6525 21.4709C17.621 20.7123 17.8751 19.9412 18.3565 19.3533C18.8525 18.737 19.5943 18.3286 20.378 18.2294V18.2294Z" fill="white"/>
<path d="M13.3171 19.4924C13.9245 19.8436 14.3906 20.4241 14.6053 21.0913C14.746 21.5123 14.7717 21.9764 14.714 22.4147C14.6069 23.147 14.2074 23.8241 13.6195 24.274C13.0221 24.7339 12.2447 24.9475 11.4967 24.8457C10.6678 24.7501 9.90295 24.2682 9.44783 23.5706C9.15702 23.1333 9.00321 22.6231 8.97014 22.1008C8.95335 21.7297 9.03156 21.3858 9.12342 21.0304C8.8956 20.8871 8.66936 20.737 8.45098 20.579C8.36174 20.5144 8.35492 20.4667 8.37067 20.3601C8.43891 20.294 8.5145 20.2766 8.59901 20.326C8.81896 20.4609 9.02684 20.6163 9.24206 20.7585C9.59324 20.0226 10.2415 19.4535 11.0253 19.221C11.7838 18.9879 12.6337 19.0898 13.3171 19.4924V19.4924Z" fill="black"/>
<path d="M11.4016 19.4383C12.3822 19.2535 13.4163 19.6856 13.9811 20.5055C14.3748 21.0709 14.5507 21.8157 14.3948 22.4919C14.2919 23.0168 14.0205 23.5024 13.6299 23.8672C13.2079 24.2693 12.6525 24.5113 12.0735 24.5638C11.0168 24.6609 9.96642 24.0483 9.52128 23.0866C9.11918 22.2483 9.21471 21.2226 9.76275 20.4719C10.1496 19.9307 10.747 19.557 11.4016 19.4383V19.4383Z" fill="white"/>
<path d="M19.1848 20.1832C19.8152 20.0336 20.4903 20.4047 20.7255 21.0037C20.842 21.3197 20.8478 21.6724 20.7213 21.9864C20.5549 22.4231 20.1486 22.7522 19.6866 22.8226C19.2866 22.8924 18.8599 22.7627 18.5617 22.4882C18.1654 22.1286 18.0205 21.5417 18.2068 21.0394C18.3601 20.6042 18.7349 20.2824 19.1848 20.1832V20.1832ZM12.4525 20.7538C12.9507 20.6499 13.4819 20.8898 13.7354 21.3307C13.9171 21.6247 13.9281 21.9748 13.8536 22.3039C13.7291 22.684 13.4068 22.9984 13.0205 23.1055C12.6263 23.2315 12.1669 23.1087 11.8667 22.8304C11.4808 22.473 11.3685 21.8856 11.6016 21.4131C11.7627 21.0714 12.0835 20.8294 12.4525 20.7538V20.7538Z" fill="black"/>
<path d="M19.0152 15.8194C19.3391 15.7974 19.7024 15.7874 19.9837 15.9743C20.1769 16.1024 20.2672 16.3076 20.2189 16.5381C20.1375 16.8614 19.8714 17.1113 19.6094 17.2992C19.1386 17.6294 18.5748 17.8367 18.0047 17.9045C17.7102 17.9323 17.3486 17.927 17.0877 17.7706C16.8971 17.6588 16.778 17.4493 16.8147 17.2268C16.8682 16.9249 17.1029 16.6761 17.3365 16.494C17.8189 16.1249 18.4152 15.8987 19.0152 15.8194V15.8194ZM12.1375 16.705C12.6157 16.6861 13.0987 16.7318 13.5186 16.98C13.7207 17.0987 13.9039 17.2892 13.9328 17.5307C13.9507 17.7517 13.8299 17.9402 13.6604 18.0698C13.4231 18.2562 13.1423 18.3323 12.8504 18.3842C12.3281 18.4378 11.7717 18.401 11.3029 18.1438C11.0997 18.0236 10.8892 17.8367 10.8583 17.589C10.8199 17.3648 10.9643 17.1444 11.1412 17.0199C11.4247 16.8168 11.7937 16.7213 12.1375 16.705V16.705Z" fill="black"/>
<path d="M18.0604 27.6446C18.3055 27.7118 18.526 27.8919 18.6987 28.0735C18.7706 28.1606 18.8856 28.2772 18.8588 28.3989C18.8346 28.5281 18.6619 28.5575 18.5937 28.4425C18.4577 28.2572 18.3039 28.0992 18.0976 27.9921C17.9785 27.9155 17.7449 27.9643 17.7506 27.7748C17.7758 27.6163 17.9354 27.6226 18.0604 27.6446ZM17.6903 28.3444C17.9512 28.4236 18.1338 28.652 18.1512 28.9249C18.2194 29.6168 17.6583 30.2793 17.0094 30.4572C16.3554 30.6493 15.494 30.3995 15.1685 29.7659C15.0388 29.5449 14.9727 29.2798 15.0667 29.0331C15.1601 28.8205 15.3722 28.736 15.59 28.7129C15.8572 28.6819 16.0913 28.7711 16.3197 28.8987C16.5202 28.6866 16.726 28.5003 16.9974 28.3837C17.211 28.2913 17.4677 28.2798 17.6903 28.3444Z" fill="black"/>
<path d="M17.738 28.7186C17.9086 28.8961 17.8566 29.2173 17.7627 29.4215C17.538 29.9491 16.9695 30.2682 16.4031 30.2084C16.0199 30.1459 15.6519 29.9926 15.4477 29.6436C15.3726 29.5092 15.2677 29.2982 15.3422 29.148C15.4619 28.9506 15.8026 28.9816 15.9868 29.053C16.1312 29.0934 16.2771 29.2677 16.4272 29.2415C16.6199 29.0546 16.7674 28.8493 17.0141 28.7228C17.2409 28.5968 17.5196 28.5496 17.738 28.7186V28.7186Z" fill="#8F2E45"/>
<path fill-rule="evenodd" clip-rule="evenodd" d="M21.2105 5.50394C21.9627 5.69816 22.769 5.93858 23.4352 6.34645C24.0152 6.04304 24.6504 5.90341 25.3018 5.88294C26.9134 5.88346 28.4772 6.70656 29.4194 8.0084C29.9727 8.76798 30.316 9.70446 30.2982 10.6504C31.5218 10.5659 32.6326 11.0388 33.5984 11.7538C35.0751 12.8625 36.1559 14.5139 36.6982 16.2698C36.9365 17.0205 37.0368 17.7979 37.0625 18.5827C37.0589 18.7138 37.0471 18.8447 37.0355 18.9755C37.0288 19.0511 37.022 19.1266 37.0168 19.2021C36.9475 19.9512 36.7171 20.6824 36.3034 21.3139C36.9192 22.1428 37.3717 23.0814 37.6693 24.0688C38.0383 25.2871 38.1816 26.6556 37.884 27.9034C38.2992 27.9202 38.7108 27.9454 39.1207 28.0163C39.7396 28.136 40.3328 28.4514 40.8431 28.8142C41.4704 29.2551 41.9843 29.8425 42.231 30.5774C42.4467 31.2068 42.4362 31.8278 42.42 32.4829C42.4211 32.583 42.4196 32.6851 42.4181 32.788C42.413 33.1333 42.4078 33.4881 42.4992 33.8084C42.6021 34.2226 42.8557 34.6068 43.1984 34.8609C43.4982 35.0651 43.8278 35.211 44.199 35.1659C44.2268 35.1663 44.2567 35.1644 44.2866 35.1624C44.4158 35.154 44.5501 35.1452 44.5564 35.3207C44.41 35.6409 44.1045 35.906 43.8184 36.1024C43.3795 36.3921 42.8782 36.6178 42.3459 36.6362L42.3465 36.6593C42.3537 36.9634 42.3606 37.257 42.3181 37.5601C42.2352 38.1192 42.0509 38.6598 41.7858 39.1585C41.262 40.1459 40.453 40.9874 39.5244 41.6031C39.5066 41.5911 39.4882 41.5799 39.4693 41.5695C39.403 41.5316 39.3247 41.4869 39.3239 41.4142C39.3239 41.3321 39.3339 41.2508 39.3438 41.1694C39.3551 41.0776 39.3664 40.9857 39.3633 40.8924C39.3617 40.3622 39.0898 39.8614 38.7066 39.5071C38.1927 39.0304 37.4992 38.779 36.8053 38.7396C37.3984 39.6063 37.5055 40.674 37.2766 41.6819C37.0541 42.6304 36.5402 43.5102 35.8278 44.1743C35.2 44.768 34.3753 45.2063 33.5118 45.3102C33.4835 45.4982 33.4467 45.6787 33.3512 45.8451C33.1176 46.2709 32.6945 46.5979 32.262 46.8042C31.7407 47.0499 31.1218 47.1806 30.5486 47.0877C30.4252 47.0709 30.326 46.948 30.3801 46.8241C30.4201 46.7811 30.4622 46.7423 30.5037 46.7039L30.5038 46.7038C30.5911 46.6233 30.6764 46.5445 30.7365 46.4325C30.989 45.9774 31.0467 45.4178 30.8745 44.9244C30.7365 44.4661 30.3501 44.0982 29.894 43.9627C29.5969 43.8766 29.284 43.8457 28.9764 43.8866C28.3704 43.9601 27.7971 44.1685 27.2259 44.3761C27.0668 44.434 26.908 44.4917 26.7486 44.5465C25.9255 44.821 25.126 45.0604 24.252 45.0971C23.5171 45.0908 22.8 44.9081 22.2116 44.4535C21.6205 44.0089 21.2578 43.3438 21.1228 42.6231C20.9843 41.9528 21.0158 41.2761 21.1454 40.6073C20.4299 41.243 19.8945 42.0877 19.7454 43.043C19.7018 43.3323 19.7202 43.6131 19.7822 43.8976C19.8089 43.9997 19.7559 44.0381 19.6927 44.0837C19.674 44.0973 19.6544 44.1114 19.6357 44.1281C19.3542 43.9484 19.226 43.6808 19.0881 43.3932L19.0667 43.3486C18.8515 42.884 18.6934 42.4 18.6268 41.8919C18.5853 41.4115 18.6095 40.9281 18.7318 40.4604C18.8625 39.9585 19.0971 39.421 19.4793 39.0598C19.8158 38.7591 20.2613 38.5657 20.6935 38.3782C20.8655 38.3036 21.0353 38.2299 21.1953 38.1507L21.2567 38.1216C21.588 37.9649 21.9147 37.8104 22.0719 37.452C22.316 36.8861 22.2095 36.2058 22.0635 35.6273C21.6326 36.2835 20.9554 36.6992 20.2074 36.9024C19.3323 37.1412 18.3717 37.0898 17.5344 36.7365C17.5706 37.1669 17.6 37.5738 17.4798 37.9953C17.2635 38.8457 16.6793 39.5249 15.9559 39.9979C15.0845 40.5643 14.0131 40.8378 12.9816 40.8677C12.9344 41.5706 12.5591 42.1402 12.073 42.6241C11.3144 43.3722 10.2919 43.873 9.2651 44.1318C8.51287 44.3134 7.73387 44.3774 6.96904 44.2336C6.95182 44.2289 6.93471 44.2247 6.9178 44.2207C6.83334 44.2003 6.75518 44.1814 6.70394 44.0987C6.69765 43.9932 6.71129 43.8751 6.83255 43.8483C6.88584 43.837 6.93854 43.8269 6.99061 43.817C7.24284 43.7687 7.48048 43.7233 7.69712 43.5528C7.94752 43.3533 8.0483 43.0399 8.0714 42.7307C8.0798 42.3139 7.86458 41.9475 7.56221 41.6756C7.16851 41.3239 6.63465 41.1034 6.13072 40.9638C5.72337 40.8572 5.30289 40.7633 4.88242 40.7328C4.60783 40.7013 4.32158 40.723 4.03528 40.7447C3.72615 40.7682 3.41696 40.7917 3.12232 40.748C2.65828 40.685 2.22206 40.4273 1.90815 40.0845C1.66563 39.8178 1.52967 39.494 1.44148 39.1486C1.18321 39.5354 1.0315 40.01 1.15224 40.473C1.18006 40.5948 1.24578 40.6794 1.31418 40.7675C1.34662 40.8091 1.37964 40.8517 1.40946 40.8992C1.42311 41.0399 1.22416 41.1433 1.10395 41.0924C0.561688 40.9564 0.0561761 40.7769 -0.306029 40.3265C-0.551698 40.3774 -0.799467 40.4 -1.05039 40.3774C-1.52073 40.3438 -1.95905 40.0966 -2.29186 39.7717C-2.82781 39.252 -3.1496 38.515 -3.3076 37.7947C-3.50393 36.8756 -3.48713 35.9034 -3.28346 34.9874C-3.07768 34.073 -2.66193 33.1333 -1.99737 32.4588C-2.37742 32.2535 -2.60314 31.8971 -2.7412 31.4982C-2.92965 30.9281 -2.9454 30.2971 -2.82466 29.7113C-2.71075 29.1228 -2.44829 28.5129 -1.98372 28.1165C-2.3076 27.937 -2.52913 27.6682 -2.66403 27.3249C-2.9559 26.5816 -2.82099 25.6819 -2.37375 25.0273C-2.21207 24.7958 -1.99894 24.5764 -1.74592 24.4467C-1.64041 24.3811 -1.47453 24.4352 -1.45826 24.5654C-1.4665 24.6526 -1.48645 24.7377 -1.5065 24.8229C-1.52729 24.9113 -1.54813 24.9999 -1.5559 25.0913C-1.60734 25.5538 -1.44251 26.0325 -1.11023 26.3596C-0.766396 26.7055 -0.270858 26.8793 0.209457 26.9013C0.889247 26.9244 1.57691 26.6772 2.09817 26.2425C2.54122 25.8803 2.83518 25.3963 2.95644 24.8367C2.49345 23.8971 2.45145 22.8625 2.53177 21.8362C2.62888 20.8677 2.99161 19.9664 3.50395 19.1454C3.51612 19.1201 3.53282 19.0944 3.54977 19.0684C3.60069 18.9902 3.65366 18.9089 3.59056 18.8226C3.14541 18.0031 2.98006 17.0283 3.05775 16.1045C3.14489 15.0079 3.52757 13.9585 4.10394 13.0268C4.91182 11.7286 6.12547 10.6441 7.54804 10.0677C8.37534 9.72756 9.27403 9.57848 10.1659 9.67716C10.2683 9.24462 10.4263 8.82152 10.6336 8.42782C10.9412 7.83464 11.4242 7.32021 11.9433 6.90551C13.0588 6.01942 14.4667 5.55118 15.8551 5.30971C17.6347 5.01155 19.4599 5.05197 21.2105 5.50394V5.50394ZM13.4703 11.5402C13.3144 11.7926 13.1706 12.0388 13.107 12.3328C13.0556 12.5748 13.0099 12.8257 13.011 13.073C13.0115 13.1979 13.1385 13.3664 13.2734 13.2803C13.8141 12.9491 14.4 12.6798 15.0031 12.4814C16.0509 12.1507 17.1223 12.0383 18.2152 11.9953C19.1364 11.9989 20.0477 12.1029 20.9359 12.3528C21.0023 12.37 21.0255 12.4172 21.0513 12.4697C21.0593 12.4857 21.0674 12.5023 21.0771 12.5186C21.2563 12.8903 21.4185 13.2694 21.5806 13.6486L21.5807 13.6487C21.7364 14.0128 21.8922 14.377 22.063 14.7344C22.4892 15.6467 23.0189 16.505 23.6656 17.2777C24.1039 17.8035 24.6118 18.2671 25.1753 18.6556C25.7202 19.0493 26.3606 19.3029 27.0309 19.3701C27.1764 19.3815 27.3232 19.3799 27.4697 19.3784H27.4697C27.559 19.3774 27.6482 19.3765 27.737 19.3785C27.8157 19.8992 27.7611 20.4136 27.685 20.9328C27.5553 21.8021 27.3154 22.653 26.9811 23.4656C26.7259 24.0824 26.3779 24.6535 25.9553 25.1696C25.4472 25.8173 24.7931 26.2829 24.1233 26.7486C23.706 27.0247 23.3028 27.3181 22.9338 27.6572C22.4178 28.1171 22.0063 28.6887 21.686 29.2987C21.4451 29.7659 21.2435 30.2698 21.1454 30.7869C21.0965 31.064 21.0687 31.3507 21.0441 31.631L20.9408 31.6431C20.4355 31.7029 19.9332 31.7623 19.4225 31.7554C17.8871 31.7874 16.3422 31.4829 14.9223 30.9024C13.5018 30.3239 12.222 29.4493 11.1343 28.3717C11.134 28.3345 11.1339 28.2975 11.1337 28.2606V28.2603C11.1322 27.9861 11.1308 27.7154 11.0813 27.443C10.9086 26.3932 10.4126 25.4567 9.74799 24.6367C9.39213 24.1936 8.98389 23.823 8.563 23.4409C8.47409 23.3604 8.38545 23.2796 8.29707 23.1984C8.28767 23.1891 8.27812 23.1799 8.26867 23.1709C8.21381 23.1182 8.1609 23.0674 8.14116 22.9895C7.86557 21.8714 7.77948 20.7197 7.8451 19.5711C8.00521 17.0509 9.0325 14.5559 10.7406 12.6898C10.8766 12.8688 11.0283 13.0635 11.2105 13.1968C11.2676 13.244 11.328 13.2483 11.3941 13.2532C11.4112 13.2544 11.4288 13.2557 11.4467 13.2577C11.8619 12.4231 12.6378 11.9024 13.4703 11.5402V11.5402ZM32.9276 20.8777C32.3659 20.1123 31.4215 19.7013 30.4767 19.8021C30.8452 20.7575 31.1475 21.6966 31.179 22.7297C31.221 23.8504 30.9727 24.9895 30.5333 26.0184C31.389 25.9522 32.179 25.506 32.7197 24.8462C33.2152 24.243 33.515 23.4619 33.5008 22.6772C33.515 22.0352 33.3097 21.3937 32.9276 20.8777V20.8777Z" fill="black"/>
<path fill-rule="evenodd" clip-rule="evenodd" d="M22.1102 6.08452C21.0425 5.73019 19.9186 5.48977 18.7931 5.44515C18.1228 5.38531 17.4666 5.43517 16.7984 5.48819C15.3149 5.6441 13.7454 6.0357 12.495 6.87927C11.7842 7.36431 11.1469 7.99948 10.7921 8.7937C10.5433 9.34699 10.3433 9.9916 10.3811 10.6037C10.433 11.4147 10.7018 12.3087 11.2824 12.9018C11.4493 12.6682 11.6126 12.4404 11.8194 12.2394C12.1952 11.8745 12.6399 11.5953 13.1102 11.3685L13.1363 11.3566C13.33 11.2682 13.5429 11.171 13.7548 11.1575C13.8446 11.158 13.9055 11.2005 13.9391 11.2829C13.9481 11.3791 13.8974 11.4531 13.8463 11.5276C13.8379 11.5398 13.8296 11.552 13.8215 11.5643C13.6855 11.7512 13.558 11.9365 13.4677 12.1507C13.3778 12.3525 13.3431 12.58 13.3094 12.8006C13.304 12.8363 13.2985 12.872 13.2929 12.9076C13.9296 12.5596 14.5832 12.2635 15.2876 12.0803C16.2393 11.832 17.2309 11.7197 18.2131 11.6966C19.0976 11.6882 19.9753 11.8089 20.8304 12.0331C20.4414 11.3113 19.9564 10.6032 19.3501 10.0462C18.726 9.46195 17.9606 8.98583 17.138 8.74384C16.6645 8.60263 16.1847 8.59633 15.6955 8.6126C15.3125 8.60877 14.94 8.66195 14.5632 8.71575L14.4619 8.73019C14.1643 8.77901 13.8824 8.83885 13.6257 9.00525C13.5527 9.06153 13.4883 9.05796 13.4078 9.05349C13.3945 9.05276 13.3807 9.05197 13.3664 9.05145C13.3699 9.02646 13.3697 9.00042 13.3694 8.97465C13.3687 8.91061 13.3681 8.84814 13.4273 8.80735C13.6614 8.621 13.9874 8.53019 14.2771 8.47244C14.8866 8.36693 15.4966 8.28137 16.1155 8.29869C17.0546 8.29397 17.9076 8.63465 18.6861 9.13701C19.2446 9.50761 19.7532 9.95958 20.1742 10.4819C20.8225 11.284 21.2771 12.1732 21.6845 13.1155L21.7083 13.1716C21.9797 13.8099 22.2532 14.4532 22.5685 15.0709C22.9979 15.8945 23.5254 16.684 24.1532 17.3701C24.5349 17.7927 24.9868 18.1606 25.4577 18.4793C25.9233 18.7948 26.474 19.0047 27.0336 19.0635C27.1654 19.0776 27.3003 19.074 27.4352 19.0703C27.6221 19.0653 27.8088 19.0603 27.9868 19.1024C28.0976 19.5365 28.0934 19.9764 28.0551 20.4194C27.9832 21.1276 27.8509 21.8284 27.642 22.5092C27.3973 23.3407 27.0719 24.1328 26.5769 24.8488C26.2892 25.2556 25.9837 25.6441 25.6157 25.9822C25.1342 26.4269 24.5734 26.8102 24.0304 27.1813L23.937 27.2451C23.3107 27.6887 22.7464 28.1832 22.3212 28.8294C21.8189 29.578 21.4246 30.4829 21.3742 31.3911L21.374 31.3993C21.3662 31.6938 21.3583 31.9928 21.3926 32.2856C21.4897 32.9927 21.716 33.6252 21.943 34.26C22.1344 34.7949 22.3262 35.3314 22.442 35.9155C22.5317 36.4409 22.5737 36.9412 22.3984 37.4556C22.3123 37.7045 22.1653 37.9165 21.9548 38.0756C21.7576 38.2268 21.5197 38.3362 21.2881 38.4428C21.214 38.4765 21.1404 38.5111 21.0672 38.5465C20.9676 38.5929 20.8622 38.6386 20.7544 38.6854C20.3493 38.8611 19.9097 39.0518 19.6178 39.3528C19.2084 39.8084 19.0026 40.4625 18.9307 41.0614C18.821 41.9076 19.0651 42.6688 19.4115 43.4273C19.4336 42.1706 20.1627 40.9979 21.1249 40.2289C21.1427 40.2162 21.161 40.2017 21.1797 40.187C21.2667 40.1183 21.3635 40.0418 21.475 40.0898C21.5751 40.1441 21.5509 40.2333 21.5268 40.3223C21.52 40.3476 21.5131 40.3729 21.5092 40.3974C21.3769 40.9638 21.2745 41.5811 21.3627 42.1612C21.4168 42.7491 21.5979 43.3386 21.9737 43.8026C22.4824 44.4305 23.2929 44.7764 24.0945 44.779C24.8808 44.8074 25.6105 44.5853 26.3543 44.3554C26.6149 44.2742 26.8745 44.18 27.135 44.0855C27.7954 43.8458 28.4613 43.6042 29.1627 43.5669C29.7312 43.5549 30.2924 43.6877 30.7081 44.0966C31.2304 44.5811 31.3569 45.3701 31.1968 46.0394C31.1291 46.3333 30.9931 46.5843 30.8078 46.82C31.4882 46.8189 32.1559 46.6116 32.6829 46.1748C32.948 45.947 33.1685 45.6646 33.1952 45.3029C33.1996 45.2807 33.2019 45.2571 33.2043 45.2333C33.2115 45.1599 33.2189 45.0848 33.2871 45.0436C33.3653 45.0217 33.4462 45.01 33.5271 44.9983C33.5856 44.9898 33.6442 44.9814 33.7018 44.969C34.4456 44.8315 35.126 44.4273 35.6682 43.9087C36.3616 43.2383 36.8593 42.3444 37.0231 41.3911C37.1601 40.6315 37.0819 39.8336 36.7002 39.1533C36.651 39.0613 36.59 38.9777 36.5291 38.8942C36.4861 38.8353 36.443 38.7763 36.4042 38.7144C36.3391 38.5843 36.4346 38.4221 36.5863 38.4326C37.0189 38.4242 37.4677 38.5055 37.8745 38.6525C38.5071 38.885 39.0819 39.3165 39.4073 39.915C39.6131 40.2903 39.7002 40.7081 39.6661 41.1349C40.4997 40.5008 41.2278 39.6908 41.6572 38.7281C41.9286 38.126 42.0761 37.4735 42.0404 36.811C42.0241 36.6656 42.0661 36.4058 42.2136 36.3433C42.9055 36.3286 43.5931 35.9816 44.0714 35.4908C43.6294 35.4619 43.2288 35.2903 42.8908 35.0074C42.4657 34.631 42.198 34.1082 42.1412 33.5433C42.0751 33.1442 42.0948 32.7556 42.1147 32.3601C42.1195 32.265 42.1244 32.1696 42.128 32.0735C42.1207 31.5444 42.0934 31.0394 41.8929 30.5438C41.6183 29.8436 41.0908 29.3312 40.4703 28.9286C40.0178 28.6362 39.5364 28.3995 39.0015 28.3045C38.7967 28.2621 38.5936 28.252 38.3883 28.2417C38.3132 28.2382 38.2382 28.2339 38.1632 28.2289C37.7412 28.1937 37.3302 28.1564 36.9265 28.0205C36.6456 27.9244 36.3952 27.747 36.1637 27.5654C35.8619 27.3318 35.5742 27.0457 35.3811 26.7144C35.3139 26.5932 35.2362 26.4362 35.2661 26.2955C35.3048 26.2177 35.355 26.221 35.4172 26.2251C35.4393 26.2266 35.463 26.2282 35.4882 26.2263L35.4888 26.2283C35.5384 26.3856 35.5867 26.5386 35.6861 26.674C35.9417 27.0378 36.3097 27.3349 36.6824 27.5717C36.9564 27.7449 37.2556 27.8058 37.569 27.8625C37.8666 26.7942 37.749 25.579 37.4782 24.516C37.1947 23.4205 36.7092 22.3554 36.0241 21.452C35.9332 21.3393 35.9877 21.2494 36.0465 21.1523C36.0614 21.1277 36.0766 21.1026 36.0897 21.0766C36.5905 20.2882 36.7643 19.348 36.749 18.4247C36.7228 17.2677 36.4021 16.1102 35.8997 15.0714C35.2782 13.8 34.3459 12.6184 33.1679 11.821C32.4509 11.3391 31.5811 10.9717 30.7086 10.9459C30.5856 10.9381 30.4646 10.949 30.3436 10.9598C30.254 10.9679 30.1644 10.976 30.074 10.9764C29.9422 10.952 29.9597 10.8314 29.9757 10.7204C29.9818 10.6784 29.9877 10.6377 29.9853 10.6042C30.0047 9.92546 29.7916 9.2294 29.463 8.63937C28.6288 7.15853 26.959 6.15433 25.2493 6.19843C24.7868 6.20105 24.3228 6.29764 23.895 6.47244C23.8357 6.4957 23.7786 6.52399 23.7215 6.55229C23.6536 6.58594 23.5857 6.61953 23.5144 6.64462C23.4162 6.67454 23.3165 6.63517 23.233 6.58426C22.8824 6.37113 22.4987 6.21365 22.1102 6.08452V6.08452ZM32.9275 20.8777C32.3658 20.1123 31.4215 19.7013 30.4766 19.8021C30.8451 20.7575 31.1475 21.6966 31.179 22.7297C31.221 23.8504 30.9727 24.9895 30.5333 26.0184C31.3889 25.9522 32.179 25.506 32.7197 24.8462C33.2152 24.243 33.5149 23.4619 33.5008 22.6772C33.5149 22.0352 33.3097 21.3937 32.9275 20.8777V20.8777Z" fill="#592454"/>
<path d="M10.1102 9.97376C9.99056 10.7942 10.1932 11.6682 10.5659 12.4026C9.77324 13.2929 9.10395 14.2882 8.60579 15.3727C7.68558 17.3486 7.33807 19.579 7.60526 21.7417C7.63098 22.0037 7.68978 22.2593 7.7134 22.5213C7.61209 22.3402 7.56064 22.1559 7.52547 21.9522C7.49345 21.8373 7.38689 21.811 7.29345 21.8887C7.24778 21.9995 7.27245 22.1412 7.30185 22.2541C7.39371 22.5654 7.54699 22.8588 7.77324 23.094C8.40999 23.7486 9.09923 24.2672 9.64568 24.9995C10.3013 25.8535 10.7848 26.8898 10.8284 27.9785C10.8488 28.5617 10.7276 29.1486 10.453 29.6651C10.1213 30.294 9.64148 30.7979 9.1386 31.2913C8.42783 31.9858 7.59266 32.6509 6.96642 33.42C6.74962 33.6961 6.5239 34.0294 6.45566 34.379C6.37639 34.8068 6.58899 35.2304 6.9029 35.5113C7.19266 35.7659 7.52862 35.9879 7.92705 35.9995C8.00736 36 8.07613 35.936 8.0651 35.8535C8.06983 35.7438 7.95539 35.7234 7.87298 35.6961C7.72337 35.6609 7.57954 35.6231 7.44831 35.5396C7.14857 35.3528 6.85513 35.1108 6.77062 34.7507C6.70027 34.5228 6.78216 34.2835 6.88873 34.0803C7.10867 33.6682 7.45566 33.3081 7.78374 32.9801C8.40841 32.3517 9.1323 31.7627 9.74542 31.1092C10.3921 30.4346 10.9244 29.6898 11.0814 28.747C13.0404 30.6451 15.6583 31.8352 18.3822 32.0283C18.7522 32.0436 19.1039 32.0919 19.4756 32.0703C20.0042 32.0367 20.5286 32.0157 21.052 31.9286C21.1276 33.1118 21.5816 34.0803 21.9391 35.1832C21.7995 35.5076 21.6105 35.7612 21.3412 35.989C20.7832 36.4572 20.0394 36.7008 19.3186 36.7412C18.6861 36.7801 18.053 36.6551 17.4861 36.3706C17.3323 36.2945 17.2268 36.399 17.1491 36.5223C17.3444 37.1606 17.2893 37.8593 16.9848 38.4541C16.6168 39.19 15.9328 39.7339 15.1937 40.0677C13.9979 40.6068 12.6116 40.6945 11.3375 40.4152C11.2221 40.3937 11.0919 40.3428 10.9748 40.3612C10.8546 40.4562 10.8572 40.5906 11.01 40.6441C11.548 40.7942 12.1207 40.8672 12.6798 40.8693C12.6378 41.2609 12.494 41.6053 12.2688 41.926C11.8478 42.526 11.2089 42.9932 10.5622 43.3244C9.63833 43.79 8.57377 44.0583 7.5365 44.0016C7.71655 43.906 7.88663 43.8241 8.02258 43.6667C8.38111 43.2562 8.4735 42.6262 8.25933 42.1265C8.11445 41.7717 7.82836 41.4682 7.51655 41.2514C6.89923 40.8289 6.21209 40.643 5.4861 40.506C5.08085 40.4289 4.66353 40.3958 4.25198 40.4257C3.87613 40.4399 3.52915 40.5013 3.15067 40.4441C2.42731 40.3328 1.80159 39.7407 1.71392 39.0032C1.705 38.9087 1.72127 38.8053 1.6966 38.7139C1.65251 38.6441 1.4798 38.6304 1.42311 38.6929C0.912349 39.2478 0.661431 40.0241 0.948045 40.7522C0.5155 40.6116 0.0651053 40.4556 -0.154842 40.022C-0.393162 39.9921 -0.603135 40.095 -0.839881 40.0887C-1.37636 40.0997 -1.85878 39.8158 -2.20629 39.4236C-2.6614 38.9081 -2.92177 38.2105 -3.04881 37.5423C-3.2572 36.4 -3.12545 35.1827 -2.68975 34.1071C-2.40471 33.4089 -1.94959 32.7055 -1.31232 32.2819C-1.1139 32.1423 -0.889225 32.0761 -0.670853 31.9785C-0.584763 31.9029 -0.637257 31.8168 -0.650905 31.7228C-0.742768 31.7249 -0.829382 31.7213 -0.918096 31.7507C-1.23043 31.8556 -1.49657 32.0294 -1.75484 32.2299C-2.18161 32.0651 -2.37374 31.6724 -2.49552 31.2588C-2.64723 30.6751 -2.62046 30.0378 -2.45143 29.4604C-2.31127 29.0079 -2.07505 28.5281 -1.6656 28.2625C-1.58634 28.2047 -1.50602 28.1543 -1.53594 28.0415C-1.55589 27.9197 -1.68345 27.9134 -1.77636 27.8656C-2.11285 27.7438 -2.31442 27.4247 -2.42098 27.0992C-2.6593 26.336 -2.42728 25.4215 -1.84146 24.873C-1.8845 25.2798 -1.87505 25.6751 -1.695 26.0504C-1.40471 26.6808 -0.778464 27.0724 -0.105498 27.1738C1.25251 27.3837 2.7407 26.5391 3.16694 25.2142C3.57167 25.8724 4.14227 26.4761 4.40841 27.1874C4.58741 27.6614 4.59529 28.2173 4.53755 28.715C4.5176 28.8357 4.69293 28.885 4.76747 28.8115C4.85776 28.7197 4.86091 28.5717 4.86983 28.4514C4.88768 27.9396 4.85198 27.4315 4.64411 26.9575C4.29713 26.1375 3.66091 25.5454 3.24883 24.7318C3.00946 24.2709 2.88295 23.7675 2.83571 23.2514C2.75487 22.6231 2.79581 21.9759 2.91497 21.3549C3.05933 20.6095 3.37639 19.9428 3.76589 19.2971C4.01681 18.8609 4.3134 18.4562 4.61944 18.0572C4.80684 17.8178 5.05566 17.558 5.15959 17.2698C5.17639 17.1412 5.0651 17.0824 4.95697 17.1365C4.82941 17.2908 4.74175 17.4745 4.60631 17.6252C4.33072 17.9459 4.08138 18.2871 3.83203 18.6283C3.35014 17.7055 3.25723 16.6619 3.42101 15.6441C3.6735 14.1281 4.48033 12.7318 5.59634 11.6861C6.47875 10.8598 7.56957 10.2462 8.76642 10.0289C9.20474 9.93858 9.66563 9.94488 10.1102 9.97376V9.97376Z" fill="#592454"/>
<path fill-rule="evenodd" clip-rule="evenodd" d="M30.279 19.3919C30.2076 19.2525 30.122 19.0853 29.9664 19.1323C29.8584 19.2058 29.8979 19.2806 29.9452 19.3702L29.9565 19.3916C30.1738 19.7506 30.3161 20.1722 30.4462 20.5706C30.757 21.5139 30.9486 22.4656 30.8604 23.4635C30.7754 24.6042 30.4168 25.7066 29.8457 26.6955C29.693 26.9683 29.5173 27.2367 29.3407 27.5064C28.9977 28.0304 28.6514 28.5596 28.4636 29.1359C28.2714 29.6971 28.2924 30.3171 28.5701 30.8457C28.736 31.1611 28.9832 31.4136 29.2683 31.6241C29.5669 31.8514 29.8891 32.0028 30.2161 32.1564C30.4879 32.2841 30.763 32.4133 31.0305 32.589C31.5056 32.8992 31.9224 33.3171 32.1203 33.8588C32.2651 34.2304 32.2835 34.6194 32.2483 35.0136C32.2326 35.347 32.179 35.643 32.0767 35.9601C32.0552 36.0325 32.0237 36.1806 32.1239 36.2052C32.1901 36.2698 32.3061 36.18 32.3334 36.1108C32.4558 35.861 32.4948 35.5533 32.53 35.2756C32.5327 35.2544 32.5354 35.2334 32.5381 35.2126C32.5817 34.7344 32.5927 34.274 32.4284 33.8152C32.2 33.137 31.6867 32.632 31.0877 32.2656C30.8421 32.1131 30.5953 31.9973 30.3525 31.8835C30.0323 31.7333 29.719 31.5864 29.4252 31.3627C29.1549 31.1501 28.9208 30.9123 28.7859 30.59C28.5843 30.1286 28.6074 29.6142 28.7806 29.148C28.9681 28.6303 29.2873 28.1424 29.6029 27.66C29.7724 27.4009 29.9408 27.1435 30.0872 26.884C30.1379 26.8014 30.1829 26.7151 30.2278 26.629C30.2784 26.5317 30.329 26.4346 30.388 26.3428C30.9575 26.2945 31.5061 26.1585 31.999 25.8598C33.2903 25.1087 34.0405 23.5181 33.7502 22.0462C33.6168 21.2535 33.1638 20.5055 32.5056 20.0404C31.8935 19.5953 31.0914 19.4142 30.3449 19.5092C30.3232 19.4782 30.3018 19.4365 30.279 19.3919V19.3919ZM32.9276 20.8777C32.3659 20.1123 31.4216 19.7013 30.4767 19.8021C30.8452 20.7575 31.1476 21.6966 31.1791 22.7297C31.221 23.8504 30.9727 24.9895 30.5334 26.0184C31.389 25.9522 32.179 25.506 32.7197 24.8462C33.2153 24.243 33.515 23.4619 33.5008 22.6772C33.515 22.0352 33.3098 21.3937 32.9276 20.8777V20.8777Z" fill="black"/>
</g>
</g>
<defs>
<clipPath id="clip0_7_177">
<rect width="40" height="40" fill="white"/>
</clipPath>
</defs>
</svg>
